<?xml version="1.0" encoding="utf-8"?>
<!-- Generator: Adobe Illustrator 27.4.0, SVG Export Plug-In . SVG Version: 6.00 Build 0)  -->
<svg version="1.1" xmlns="http://www.w3.org/2000/svg" xmlns:xlink="http://www.w3.org/1999/xlink" x="0px" y="0px"
	 viewBox="0 0 755 378" style="enable-background:new 0 0 755 378;" xml:space="preserve">
<g id="Ebene_3">
</g>
<g id="Ebene_2_00000057864581554498817800000017970955698393760184_">
	<g>
		<path d="M0,44l0-19c0.3,0.3,0.5,0.9,0.8,0.9c1.9,0,3.6,0.8,5.4,1.2C7.1,27.2,8,27.1,9,26.4c0.7-0.5,1.9-0.4,2.9-0.3
			c2.5,0.3,4.3-1.1,6.2-2.2c1-0.6,1.7-2,2.3-3.1c1.3-2.5,2.7-4.9,2.3-7.9c-0.3-2.4-1.8-4.4-4.3-4.8c-0.6-0.1-1.2-0.4-1.8-0.6
			c-0.7-0.2-1.6-0.6-2.1-0.3C12.1,8.4,9.3,8.2,7,9.8c-2,1.3-3.8,2.6-4.7,4.9C1.6,16.5,0.8,18.2,0,20L0,7c0.9-0.5,1.9-1,2.8-1.4
			C4.2,5,5.3,4.3,5.9,2.7C6.3,1.7,7.3,0.9,8,0c6.8,0,13.7,0,20.5,0c0.4,1.5-0.1,3,0.7,4.5c0.9,1.7,2.3,2.2,3.7,2.5
			c1.8,0.3,3.7,0.4,5.4,0c2-0.5,4-1.6,5.7-2.8c2.8-2,2.8-2.3,3.5-4.2c7.3,0,14.7,0,22,0c0,0.3,0.1,0.7,0.1,1
			c-0.6,2.7,1.3,4.1,2.9,5.6c0.1,0.1,0.1,0.2,0.2,0.2c2.5,0,4.8,2.8,7.5,0.5c0.5-0.4,1.5-0.1,2.2-0.4c2.3-1,4.3-2.5,5.5-4.8
			C88.1,1.4,88.6,0.7,89,0c7.5,0,15,0,22.5,0c-0.3,0.7-0.6,1.5-1,2.2c-1.4,2.6-1.2,5.1-0.1,7.7c0.9,2.3,2.9,2.6,4.8,3.1
			c1,0.3,2.2-0.1,3.2,0.1c2.7,0.6,4.8-0.7,6.7-2.2c1.9-1.4,2.8-6.2,1.7-8.4c-0.4-0.9-0.9-1.7-1.4-2.6c4.3,0,8.7,0,13,0
			c0.5,0.7,2.6,2,3.5,2.1c0.7,0,1.5-0.1,2.2,0c1.8,0.2,3-0.5,3.8-2.1c15.2,0,30.3,0,45.5,0c0,1.3,0.2,2.7,0.1,4
			c-0.2,2.3,0.7,4.2,2.2,5.9c1.1,1.3,3,3,3.6,3.2c1.1,0.3,2.1,0.6,3.6,1.1c0.4-0.2,1.3-0.6,2.2-1.1c2.5-1.5,3.4-4.4,1.9-7.1
			c-1.1-2-2.4-4-3.5-5.9c4,0,8,0,12,0c0,0.8,0.1,1.7,0.1,2.5c0,0.4-0.1,0.9,0.2,1.2c1.8,2.3,3.1,5.1,6.1,6.2
			c1.9,0.7,4.9,0.2,6.1-1.5c1.2-1.7,0.9-3.6,0.2-5.4c-0.4-1.1-1.1-2-1.6-3c3.7,0,7.3,0,11,0c0.4,2.9,1.7,5.1,4.5,6.3
			c0.8,0.3,1.6,0.8,2.4,1.2c2.3,1.2,5-0.2,5.2-2.8c0.1-1.6,0-3.1-0.1-4.7c3.7,0,7.3,0,11.1,0c0.6,3.2,3.5,3.8,5.7,5
			c0.5,0.3,1.7,0.2,2.1-0.2c0.7-0.7,2.1-0.4,2.4-1.9c0.1-1,1.3-1.7,0.8-2.9l67,0c0.4,2.3,1.3,4,3.5,5.5c2,1.4,3.8,1.6,6,1.5
			c3.4-0.1,6.5-3.5,6.6-7.1l43,0c-0.3,3.4,0.9,6.2,3.6,8.2c1.2,0.9,2.5,1.9,4.1,1.9c0.3,0,0.7,0,1,0.2c2.6,2,4.8,0.5,6.9-1
			c3.1-2.3,4-5.5,3.4-9.2h16c0.1,1.5,1.2,1,2.1,1.1c0.8,0,1.1-0.3,0.9-1.1l23,0c0.3,2.2-1.4,3.7-2.1,5.5c-0.5,1.2-1.5,1.7-2.8,1.6
			c-1.6-0.2-3.2,0.2-4.7-0.9c-1.2-0.8-2.9-0.8-4.4-1.2c-1.4-0.4-2.8-0.8-4-1.6c-0.9-0.6-1.4-0.4-2.1,0.1c-2.3,1.5-3,4-3.9,6.3
			c-0.9,2.3-1.4,4.7-2.5,6.9c-0.5,1.1-0.6,2-0.5,2.9c1.9,0.8,3.6,1.6,5.4,2.2c1.4,0.5,3,0.7,4.4,1.2c1.7,0.6,3.4,1.4,4.5,3
			c1.1,1.6,2.2,3.3,1.5,5.3c-0.8,2.2-1.9,4.3-2.8,6.5c-0.9,2.2-2.8,2.8-4.7,3c-2.5,0.4-5.1,0.3-7.3-1.4c-0.2-0.1-0.4-0.4-0.6-0.4
			c-2.2,0.2-3.2-1.5-4.5-2.7c-1.2-1.2-1.3-2.7-0.5-4.3c0.6-1.4,1.1-2.8,1.5-4.2c0.4-1.4,0.5-3.2,1.3-4.3c1-1.5,0.7-2.8,0.7-4.2
			c-1-0.5-2-0.9-3-1.3c-2.3-0.8-4.6-1.5-6.8-2.5c-2.1-0.9-4.1-0.8-6.2-0.1c-1.7,0.6-2.8,1.9-3.5,3.6c-1.2,2.8-2.5,5.4-2.5,8.6
			c0,2.1,1,3.3,2.5,4.2c2.6,1.5,5.4,2.5,8.4,3.2c3.5,0.8,4.9,3.8,3.4,7.3c-0.6,1.4-0.8,2.9-1.3,4.4c-0.5,1.6-0.9,3.3-2.5,4.1
			c-1.4,0.8-2.9,1.4-4.7,1.3c-2.2-0.1-4-1-6-1.7c-1.3-0.4-2.4-1.3-3.9-1.5c-1.3-0.2-2.5-1.3-3.6-1.9c1.3-3.5,2.5-6.6,3.5-9.8
			c0.3-0.9,0.5-1.8,0.9-2.7c0.9-1.9-0.2-4.2-2.5-5.3c-1.9-0.9-4-1.5-5.9-2.4c-3.9-2-9-0.3-10.6,3.4c-0.5,1.1-0.5,2.5-1.2,3.4
			c-1.4,1.8-0.7,3.7-0.6,5.5c0,0.9,0.6,2.2,1.4,2.7c1.8,1.4,4,2.6,6.2,3c2.5,0.5,4.8,1.7,7.1,2.4c0.9,3-0.6,5.4-1.3,7.9
			c-0.4,1.4-0.9,2.8-1.6,4.1c-0.7,1.3-0.9,2.9-2.4,3.6c-0.8,0.4-1.6,0.8-2.2,1c-4.7-1.6-9.2-3.1-13.9-4.7c-0.6,0.4-1.8,0.7-2.2,1.4
			c-0.9,1.8-1.4,3.7-2.1,5.6c-1.2,3.4-2,7.1-5.9,8.8c-0.7-0.3-1.3-0.8-1.9-1c-1.1-0.4-2.3-0.7-3.5-1.2c-1.5-0.6-2.9-1.5-4.4-1.8
			c-1.8-0.3-3.7-0.1-5.5,0c-0.5,0-1.1,0.6-1.3,1c-1.5,2.6-2.7,5.4-3.5,8.3c-0.6,2.4-1.8,4.4-3.7,5.5c-1.2-0.4-2.1-0.6-3-0.9
			c-1.4-0.4-2.8-0.8-4.1-1.3c-1.4-0.5-2.7-1.2-4.2-1.6c-0.9-0.2-1.8,0-2.4-0.9c-0.1-0.2-0.7-0.2-0.9-0.1c-1.5,1.2-3.1,2.2-3.7,4.2
			c-0.8,2.2-1.6,4.5-2.3,6.7c-0.2,0.7-0.4,1.4-0.7,2c-0.4,0.7-1,1.9-1.6,2c-1.8,0.2-3.7,0.6-5.6-0.4c-1.7-1-3.6-1.7-5.6-2.3
			c-0.9-0.3-1.8-0.5-2.7-0.9c-2-1-4.4,0.2-5.5,2.9c-1.5,3.6-2.8,7.3-4.2,10.9c-2.7,0-5.4,0.8-7.3-1.7c-0.1-0.1-0.3-0.1-0.4-0.2
			c-2.1-1.1-4.3-2-6.2-3.6c-1.8-1.5-4.4-0.2-5,2.1c-0.3,1.2-0.9,2.3-1.4,3.4c-0.2,0.5-0.4,1-0.6,1.6c-0.9,2.8-1.8,5.6-5.1,6.5
			c-1.2-0.6-2.4-1.2-3.5-1.8c-1.2-0.7-2.5-1.3-3.5-2.3c-2.3-2.2-5.9-3.2-6.8-6.9c0.9-2.1,1.8-4.4,2.7-6.6c0.4-1,0.9-2.2,1.1-3.4
			c0.6-3.5-0.4-6.7-2.2-9.7c-0.2-0.4-0.7-0.7-1.1-1c-1.2-0.9-2.3-1.8-3.5-2.7c-0.8-0.6-1.6-1.2-2.4-1.7c-2.5-1.4-5.4-0.5-6.6,2
			c-0.8,1.7-1.4,3.4-2,5.2c-0.4,1.1-0.8,2.3-1,3.4c-0.5,3.6,1.3,6.2,4,8c1.7,1.1,3.1,2.4,4.6,3.7c0.2,0.2,0.3,0.4,0.6,0.5
			c2.5,0.8,3.6,2.7,4.5,4.8c-0.2,0.6-0.7,1.1-0.6,1.6c0.2,1.8-0.7,3.2-1.4,4.7c-0.2,0.4-0.5,0.9-0.6,1.3c-0.8,3-1.7,5.8-5.2,6.9
			c-1.7-1-3.6-1.8-5.2-3.1c-2.1-1.7-3.9-3.7-5.7-5.6c-0.5-0.6-0.9-1.4-1-2.2c-0.4-3,0.4-5.7,1.7-8.4c0.6-1.3,1-2.9,1.2-4.4
			c0.2-1.5,0-3.2,0.1-4.7c0-1-0.4-1.7-1.1-2.4c-1.9-1.8-3.7-3.8-5.7-5.6c-1-0.9-2.2-1.7-3.5-2.4c-1.5-0.8-3.5-0.5-4.5,0.9
			c-1.3,1.9-2.4,4-3.3,6.1c-0.9,2.2-1.6,4.5-2.3,6.7c-2.8-0.9-3.3-1.1-5.6-3.5c-2.9-3-6.2-5.2-9.8-7.5c-2.2,3-3.4,6.2-4.3,9.5
			c-0.5,1.8-1.2,3.4-2.6,4.7c-1.4,1.2-2.2,1.2-3.7,0.1c-1.8-1.4-3.6-2.7-5.3-4.1c-1.7-1.3-3.3-2.8-4.8-4.2c-0.3-0.3-0.5-0.9-0.5-1.3
			c-0.3-3,0.3-5.9,1.7-8.7c0.6-1.3,1.1-2.9,1.3-4.3c0.2-1.6,0.1-3.3,0-5c-0.1-0.7-0.4-1.6-1-2.1c-2.4-2.1-4.9-4.2-7.4-6.2
			c-0.5-0.4-1.1-0.8-1.7-1c-1.5-0.4-3.1-0.7-4.4,0.7c-1.1,1.3-2.5,2.2-2.7,4.3c-0.1,1.6-1.4,3.1-1.7,4.7c-0.4,2.5-1.6,4.3-3.6,6
			c-1.8-1.2-3.7-2.4-5.6-3.5c-2.7-1.5-5.4-2.9-8.2-4.2c-0.7-0.3-1.6-0.2-2.2-0.2c-1.1,2.6-2.1,4.9-3,7.2c-0.5,1.3-1.1,2.7-1.3,4.1
			c-0.6,3.1-4.4,5.6-7.3,4.5c-2.4-0.8-4.7-1.9-7-3c-3.3-1.7-4.5-5.7-3-9.1c0.5-1.2,0.9-2.6,1.2-3.9c0.4-1.8,0.9-3.5,1.8-5.1
			c0.9-1.8,0.1-3.9-1.6-4.8c-1.2-0.6-2.5-0.7-3.7-1.3c-1.8-0.8-3.4-2-5.5-1.8c-0.3,0-0.7-0.4-1-0.6c-1.6-0.9-4.5-0.5-5.7,0.9
			c-0.9,1.1-1.8,2.5-2.2,3.8c-0.8,2.8-1.7,5.6-3.2,8.2c-1.3,2.2-3.3,3.7-5.8,3.6c-2.2,0-4.3-1.1-6.7-1.2c-0.6,0-1.5-0.7-2.4-0.8
			c-1.5-0.3-2.9-2.3-3-3.8c-0.3-3.2,0.6-6.1,2-8.9c0.6-1.1,1.1-2.2,1-3.5c0-0.7,0.5-1.5,0.7-2.3c-0.4-0.7-0.8-1.5-1-1.9
			c-1.3-0.6-2.3-1.4-3.3-1.4c-2.6,0-5.1-0.5-7.7-1.1c-1.2-0.3-2.5-0.1-3.7,0c-2.4,0-4.4,1.5-5,3.8c-1,3.5-2.3,6.8-3.9,10
			c-1.4,2.8-3.7,4.2-6.8,4.2c-1.2,0-2.3,0-3.5,0c-0.6,0-1.1-0.2-1.7-0.3c-0.7-0.2-1.3-0.5-2-0.7c-1.1-0.4-2.4-0.6-3.4-1.1
			c-1.4-0.7-1.8-3.3-1.2-4.8c0.6-1.4,1-2.8,1.4-4.3c0.4-1.5,0.4-3.2,1.3-4.3c1-1.5,0.7-2.8,0.6-4.5c-2.2,0-4.2,0-6.3,0
			c-0.7,0-1.6,0.2-2-0.2c-1.4-1.2-3-0.8-4.5-0.8c-1.2-0.1-2.3,0-3.5,0c-1,0-1.8-0.4-2.1-1.1c0.9-2.8,1.5-5.4,2.5-8
			c0.5-1.2,0.5-2.8,1.2-3.6c1.4-1.5,0.1-2.4-0.3-3.5c-0.5-1.5-1.6-2-3.1-1.9c-2.9,0.1-5.8,0.1-8.8,0c-2.5-0.1-4.4,1-6.2,2.5
			c-2.4,2-3,4.9-3.8,7.5c-0.6,2-1.5,3.8-2.5,5.6c-0.8,1.6-2.2,2.6-4.3,2.4C5.3,43.9,2.7,44,0,44L0,44z M147.2,67
			c0.4-0.8,0.8-1.4,1-2.1c0.8-2.2,1.6-4.4,2.2-6.6c0.3-1.2,1.5-2,1.1-3.4c1.8-1.5,0.2-2.9,0-4.3c-0.3-1.8-1.1-3.3-2.5-4.5
			c-1.3-1-2.8-1.5-4.3-2.1c-1.9-0.7-3.6-0.9-5.5-0.8c-0.7,0-1.6,0.4-2.2,0.9c-0.9,0.7-1.7,1.6-2.5,2.5c-0.5,0.6-0.8,1.4-1.1,2.1
			c-0.6,1.5-1.2,3.1-1.7,4.7c-0.5,1.3-1,2.6-1.2,3.9c-0.4,2,0.4,3.8,2.4,4.7c1.9,0.8,3.5,2.1,5.7,2.4c1.3,0.1,2.6,1.1,3.7,1.9
			C143.9,67.1,145.5,67.3,147.2,67L147.2,67z M107.8,53.2c3.1-0.1,5.2-2.1,5.8-5.3c0.3-1.7,1.1-3.3,1.6-4.9c0.1-0.2,0.3-0.4,0.3-0.7
			c-0.1-2.4,0.6-4.9-0.8-7.3c-0.7-1.2-1.6-1.8-2.8-2.3c-2.1-0.8-4.1-2.1-6.4-1.6c-2.2,0.4-4.6,0.7-6.2,2.7c-1.2,1.5-2.7,2.7-3,4.9
			c-0.3,2-1.6,3.8-2.5,5.8c-0.5,1.2-0.2,4.4,0.6,4.9c1.2,0.7,2.4,1.5,3.9,1.7c2.2,0.3,4.5,0.8,6.6,1.7
			C105.8,53.2,106.8,53.1,107.8,53.2L107.8,53.2z M53.8,45.1c1,0,1.9-0.1,2.8,0c0.7,0.1,1.3,0.4,2,0.6c0.6,0.2,1.3,0.4,1.9,0.4
			c2.9,0,5.8-0.1,8.7,0.1c2,0.2,3.3-0.8,4-2.3c0.9-1.8,2.3-3.5,2.3-5.7c0-0.7,0.6-1.5,1-2.2c1.5-2.4,1.1-4.7-0.1-7
			c-0.1-0.2-0.2-0.6-0.4-0.6c-2.1-0.6-3.8-2.1-6.2-2.3c-4.2-0.4-7.3,1.7-10.7,3.2c-0.3,0.1-0.6,0.6-0.8,0.9
			c-1.5,3.3-3.3,6.5-4.2,10.2C54,41.8,53.4,43.1,53.8,45.1L53.8,45.1z M201.4,81.4c3.5-1.4,4.2-4.3,5.3-7.3c1.1-2.8,1-5.5,0.7-8.2
			c-0.5-4.3-3.7-9-8.5-9.8c-0.2,0-0.5,0-0.7-0.1c-0.7-0.2-1.1-1.4-2.1-0.8c-1.6,1-3.3,1.8-4.4,3.5c-2.4,3.5-2.5,7.4-2,11.2
			c0.3,2.7,2.3,4.7,4.6,6.2c0.4,0.3,0.9,0.4,1.3,0.7C197.5,78.3,199.4,79.8,201.4,81.4L201.4,81.4z M265.6,82.9
			c-0.5,5.1,2.4,7.9,6,10.2c0.6,0.4,1.2,0.9,1.8,1.3c1.2,0.8,2.3,1.8,3.6,2.4c1,0.5,2.2,0.4,3-0.6c0.9-1.1,1.8-2.2,2.4-3.5
			c0.6-1.4,0.9-3.1,1.3-4.6c0.1-0.5,0.4-0.8,0.6-1.3c0.2-0.4,0.5-1,0.4-1.4c-0.5-1.8-0.7-3.6-1.9-5.1c-0.4-0.5-0.7-0.9-1-1.4
			c-1.5-2.8-3.7-4.6-6.9-5.1c-0.4-0.1-0.8-0.2-1.1-0.5c-0.7-0.6-1.4-0.8-2.1,0c-0.2,0.2-0.6,0.5-0.8,0.4c-2-0.2-2.6,1.1-3.4,2.6
			C266.3,78.7,265.1,80.7,265.6,82.9L265.6,82.9z M49.2,26.1c1.3-0.1,2.8,0.5,3.9-0.9c0.1-0.1,0.3-0.1,0.5-0.1
			c2.4,0.7,3.8-1.2,5.5-2.2c3.2-1.8,6.3-8.8,3.5-12.6C61.5,8.6,60,7,57.6,7.1c-0.9,0-1.9,0.1-2.7,0c-1.3-0.3-2.1,0.9-3.2,0.9
			c-1.3,0.1-2.1,0.5-3,1.4c-0.6,0.6-1.6,0.8-2.3,1.4c-3.2,2.8-5.2,6.2-4.8,10.6c0.1,0.8,0.4,1.6,0.9,2.2
			C44.3,25.5,46.5,26.4,49.2,26.1L49.2,26.1z M360.3,47.4c0.3,1.3,0.6,2.7,1,4c0.6,2.6,2.8,3.1,4.9,3.7c1.4,0.4,3,0.5,4.1,1.3
			c1.9,1.3,3.9,0.8,5.7,0.6c1.8-0.2,2.1-2.3,2.5-3.7c0.6-1.9,1.3-3.7,1.9-5.6c0.8-2.6,0.2-5.1-1.8-7.1c-1.3-1.3-2.8-2.2-4.7-2.5
			c-1.5-0.3-2.8-1-4.4-1c-3.7,0-5.9,2.1-7.9,4.8C360.5,43.5,360.4,45.4,360.3,47.4L360.3,47.4z M168,56c0.7-0.4,1.2-0.8,1.8-0.9
			c2.6-0.5,4.7-2.8,4.8-5.5c0.1-2.3,0.1-4.7,0-7c-0.1-3.1-3.7-7.8-6.5-8.4c-1.8-0.4-4-0.6-5.7,0c-1.4,0.6-3,1.6-4,3.3
			c-1.5,2.5-1.9,5-1.8,7.8c0.1,3.7,2,6.1,5,7.7c1.7,0.9,3.3,2.2,5.4,2.2C167.3,55.2,167.7,55.8,168,56L168,56z M321.6,59.2
			c-4.7-0.5-7.8,1.9-9.5,5.9c-0.7,1.8-0.6,4.1-0.5,6.1c0.1,0.9,1.2,1.7,1.8,2.5c1.6,2.1,4.1,3,6.4,4.1c1.1,0.5,2.6,0.2,3.9,0.2
			c4.7,0.1,3.7,0.1,5.6-3.4c0.4-0.8,0.8-1.7,1.2-2.5c3-6.3-0.7-10.9-5.6-13C324.1,58.8,322.8,59.2,321.6,59.2L321.6,59.2z
			 M287.8,77.1c0.3,1.2,0.5,2.5,0.8,3.7c0.1,0.5,0.3,1.2,0.6,1.6c1.6,1.5,3,3.3,5.2,4.2c1.4,0.6,2.8,1.5,4.2,2.2
			c1.7,0.9,3.7,0.6,4.9-0.9c0.8-1,1.8-2.2,1.9-3.4c0.2-1.5,0.9-2.7,1.5-3.8c0.9-1.7,0.9-3.3,0-4.9c-0.5-0.9-0.9-1.8-1.3-2.7
			c-0.3-0.5-0.5-1.1-1-1.4c-1.6-1.1-3.2-2.5-5-3.1s-3.9-0.5-5.9-0.4c-0.8,0.1-1.6,1-2.3,1.6c-0.7,0.6-1.4,1.2-1.9,1.9
			c-0.4,0.5-0.7,1.1-0.8,1.7C288.3,74.7,288,75.9,287.8,77.1L287.8,77.1z M335.5,58c0.7,1.7,1.4,3.2,1.8,4.7
			c0.6,2.3,2.5,2.9,4.2,3.2c2.3,0.4,4.4,1,6.6,1.9c0.7,0.3,2,0,2.8-0.4c1-0.6,1.8-1.5,2.4-2.5c2.4-3.4,2.7-7.2,2.3-11.1
			c0-0.4-0.3-0.8-0.5-1.1c-1-1.1-2.1-2.1-3.2-3.2c-0.1-0.1-0.2-0.3-0.4-0.3c-2.5-0.6-4.9-1.8-7.6-1.3c-1.9,0.4-3.4,1.5-4.8,2.9
			c-1.4,1.4-2.9,2.7-2.6,5C336.5,56.6,335.9,57.3,335.5,58L335.5,58z M82.2,20.8c0.5,1.6,0.7,3.2,1.4,4.6c0.8,1.6,2,3.1,4.3,2.7
			c0.5-0.1,1.2,0,1.4,0.2c0.9,1.2,2.3,1,3.2,0.6c2.9-1,6.2-1.4,8-4.2c1.1-1.7,2.2-3.5,2.9-5.4c0.7-1.9-0.3-3.8-1.4-5.3
			c-2.3-3.1-5.5-4.8-9.3-3.8c-2,0.5-4.3,0.7-5.7,2.8c-0.6,0.9-1.4,1.6-2.3,2.3C83.1,16.7,82,18.3,82.2,20.8L82.2,20.8z M130.8,19.2
			c-2.2-0.3-4.1-0.1-5.7,1.1c-1,0.8-1.9,1.7-2.5,2.7c-0.9,1.5-1.6,3.2-2,4.9c-0.2,1-0.6,2.3,0.5,3.3c0.2,0.2,0.4,0.4,0.3,0.6
			c-0.1,2.8,2,3.6,4,4.8c2.6,1.6,5.3,1.5,8.1,1.4c0.5,0,0.9-0.3,1.3-0.5c0.4-0.2,0.6-0.7,0.9-0.8c2.9-0.9,3.4-3.7,4.6-5.8
			c0.4-0.8,0.2-2,0.2-2.9c-0.1-3.6-3.2-7.8-6.5-8.7C132.9,18.9,131.7,19.2,130.8,19.2L130.8,19.2z M212.6,61.1
			c-0.4,2.6,0.8,4.8,2.3,7.3c1.4,2.5,3.6,3.9,5.7,5.2c1.2,0.8,3.4,0.5,4.9,0c2.8-0.9,3.4-3.7,4-6.2c0.3-1.4,0.2-3,0-4.5
			c-0.3-2.5-1.6-4.6-3.1-6.6c-0.7-0.9-1.6-1.7-2.4-2.5c-0.9-0.9-1.8-2-3.3-1.8c-0.1,0-0.2,0-0.2,0c-0.8-0.2-1.3-1.5-2.4-0.8
			c-1.6,1-3.3,1.8-4.4,3.5C212.4,56.7,212.6,58.7,212.6,61.1L212.6,61.1z M383,21.1c4.3,0.5,7.2-1.8,9.1-5.7
			c0.9-1.9,0.9-3.8-0.1-5.7c-0.2-0.4-0.3-0.8-0.5-1.1c-1.2-2.5-3-4.2-5.8-4.6c-0.4-0.1-0.7-0.5-1-0.6c-1.3-0.1-2.6-0.1-3.8,0
			c-0.3,0-0.6,0.6-1,0.6c-3.6,0.2-4.9,3-5.9,5.6c-1,2.7-0.5,5.6,1.6,7.9c0.8,0.9,1.7,1.6,2.4,2.5c0.6,0.8,1.4,1.1,2.4,1
			C381.1,21,381.9,21.1,383,21.1L383,21.1z M234.5,56.1c0.6,3.1,1.2,6.1,3.2,8.8c1.6,2.2,3.6,3.6,5.9,4.7c0.7,0.4,1.8,0.6,2.5,0.3
			c3.8-1.5,6.3-4.2,5.4-8.6c-0.8-3.8-2.2-7.5-5.4-10.3c-2.3-2-4.9-2.1-7.7-1.9c-0.4,0-0.7,0.4-1,0.6
			C235.6,51.5,234.4,53.4,234.5,56.1L234.5,56.1z M190.5,48.1c1.2-0.4,2.2-0.6,3.1-1c0.9-0.5,1.9-1.1,2.5-1.9
			c1.8-2.6,2.2-5.4,0.8-8.4c-0.3-0.7-0.3-1.6-0.6-2.4c-1.1-2.8-3.1-5.1-6-5.9c-2-0.6-4.7-0.7-6.5,0.1c-2.2,1-3.2,3.5-3.3,6.2
			c-0.3,5.1,2.4,8.6,5.8,11.7c0.3,0.3,0.7,0.4,1.1,0.5C188.5,47.4,189.6,47.8,190.5,48.1L190.5,48.1z M367.6,23.9
			c0.3-4.2-1.4-6.8-4.9-8.3c-1.2-0.5-2.4-1.3-3.6-1.4c-4.9-0.5-9.4,3.9-9.5,8.8c-0.1,3.4,1.7,5.6,3.9,7.6c0.1,0.1,0.2,0.3,0.4,0.3
			c2.3,0.1,4.4,1.8,6.9,1.1c1.9-0.5,3.3-1.7,4.8-3C367,27.5,368.2,25.9,367.6,23.9L367.6,23.9z M272.6,57.6c0.4-2.4-0.8-4.4-2.4-6.7
			c-1.5-2.2-3.6-3.6-5.9-4.5c-3.1-1.3-7.8,0-7.9,5.1c0,2.5,0.3,5.1,1.4,7.1c1.2,2.3,2.4,5,5.4,5.9c0.5,0.2,1.1,0.4,1.5,0.8
			c1.8,1.6,3.5,0.7,5.2-0.2s2.3-2.5,2.6-4.3C272.7,59.8,272.6,58.9,272.6,57.6L272.6,57.6z M334.5,43.2c1.7-0.7,3.4-1.3,5-2.1
			c1.1-0.5,3.1-3.7,3.1-4.9c0-1.1-0.2-2.2,0-3.2c0.6-2.5-1.3-4.1-2.5-5.6c-1-1.2-2.9-1.8-4.6-2.2c-1.6-0.4-3.3,0.1-5,0.8
			c-2.4,1.1-4.1,2.6-5,5.1c-0.2,0.7-0.7,1.3-1,1.9c0.6,1.6,1.1,3.1,1.7,4.6c1.1,2.7,3.2,4,6,4.5C333.1,42.3,333.9,42.9,334.5,43.2
			L334.5,43.2z M301.6,43.7c-0.5,4.3,2.5,7.9,6.4,9.1c4.8,1.5,10.2-1,10.7-7c0.2-2.7-0.8-5-2.2-6.9c-0.9-1.3-2.4-2.7-4.3-2.8
			c-0.5,0-1-0.3-1.5-0.6c-1-0.5-2-0.7-3,0.1c-0.2,0.2-0.6,0.5-0.8,0.5c-1.7-0.3-2.7,0.8-3.5,1.9c-1,1.4-2,2.9-1.7,4.8
			C301.6,43,301.6,43.3,301.6,43.7L301.6,43.7z M146.6,17.7c-0.3,3.9,1.5,6.5,5,8c1.4,0.6,2.6,1.8,4.3,1.4c3.2-0.7,6.3-1.5,7.4-5.1
			c0.8-3,0.6-5.9-1.5-8.4c-0.8-0.9-1.7-1.8-2.6-2.6c-0.5-0.4-1.1-0.7-1.7-0.9c-0.6-0.2-1.2-0.4-1.8-0.6c-0.5-0.2-1.2-0.6-1.6-0.4
			c-1.6,0.9-3.7,0.5-5,2c-1.5,1.6-2.6,3.4-2.4,5.8C146.6,17.2,146.6,17.4,146.6,17.7L146.6,17.7z M289.1,60.9c0.6-0.3,1.3-0.6,2-0.8
			c2.1-0.4,3.2-1.5,3.6-3.7c0.1-0.5,0.4-0.9,0.5-1.3c0.2-0.8,0.6-1.7,0.3-2.3c-1.1-2.2-1.5-4.7-3.2-6.8c-2.2-2.7-4.7-4-8-3.8
			c-3,0.2-5.5,2.6-5.7,5.8c-0.3,4.3,1.6,7.7,4.7,10.4c1,0.9,2.4,1.2,3.7,1.8C287.7,60.4,288.4,60.6,289.1,60.9L289.1,60.9z
			 M203.6,30.6c-0.1,4.1,1.8,7.3,4.8,9.9c2.2,1.9,4.9,1.9,7.7,1.5c0.4,0,0.7-0.4,1-0.7c1.1-0.9,1.4-2,1.7-3.4c0.3-1.3,0.9-2,0.1-3.5
			c-0.7-1.2-0.2-3-1.2-4.5c-1.7-2.6-3.8-4.7-6.6-5.7c-1.4-0.5-3.2-0.5-4.7,0c-2,0.5-2.2,2.7-2.8,4.3
			C203.4,29.2,203.6,29.9,203.6,30.6L203.6,30.6z M225.6,27.8c-0.4,2.7,0.9,5,2.9,6.9c1.5,1.4,2.8,3,4.8,3.8c2.4,1,3.7,1,5.5-0.8
			c0.7-0.8,1.7-1.7,1.8-2.5c0.1-1.8,0.5-3.6-0.5-5.3c-1.2-2.3-2.3-4.6-4.4-6.2c-1-0.8-2.1-1.7-3.3-2.2c-2.8-1-6.2,0.5-6.7,4
			C225.5,26.1,225.6,26.9,225.6,27.8L225.6,27.8z M314.4,9.8c0.2,1.1,0.4,2.2,0.6,3.4c0.5,1.8,1.7,2.9,3.5,3.6
			c0.8,0.3,1.4,0.8,2.2,1.2c0.3,0.1,0.6,0.3,0.9,0.3c2,0.3,7.1-2.4,7.8-4.3c0.4-1.1,0.2-2.4,1.1-3.4c0.2-0.2-0.1-0.8-0.2-1.1
			c-0.2-0.4-0.7-0.9-0.6-1.3c0.2-2.2-1.6-3-2.8-4.1c-1.2-1.1-2.7-1.8-4.5-1.8c-2.7-0.1-4.4,1.4-6.3,3C314.5,6.3,314.4,8,314.4,9.8
			L314.4,9.8z M185.6,12.4c0.5-2.7-1-5-3.1-7.1c-0.7-0.7-1.5-1-2.6-1.3c-1.5-0.4-2.8-1.1-4.4-0.9c-2,0.2-4.9,2.8-4.9,4.8
			c0,2.1-0.4,4.3,0.9,6.3c0.8,1.3,1.7,2.4,3.2,3c1.9,0.8,3.5,2.1,5.7,2c2.7-0.2,5.2-2.4,5.2-5.2C185.6,13.6,185.6,13.2,185.6,12.4
			L185.6,12.4z M247.6,25.3c-0.3,4.2,2,6.9,5.2,9c0.3,0.2,0.8,0.4,1,0.7c1.3,1.7,3,1.4,4.5,0.8c1.8-0.6,3-2,3.2-4.1
			c0.4-4.5-1.6-8-4.7-11c-0.4-0.4-1-0.5-1.5-0.7c-0.4-0.1-1,0-1.2-0.2c-2.3-2.1-3.9,0-5.7,0.9c-0.4,0.2-0.7,1.1-0.8,1.7
			C247.5,23.4,247.6,24.3,247.6,25.3L247.6,25.3z M290.6,17c0.7,1.8,1.1,3.6,2,5.1c1.6,2.9,4,5,7.6,4.9c2.2-0.1,3.8-1.5,5.2-3.1
			c0.1-0.1,0.2-0.3,0.2-0.4c-0.1-2.4,0.6-4.9-0.7-7.3c-0.8-1.4-1.8-2.6-3.3-3.2c-0.6-0.3-1.2-0.6-1.8-0.9c-1.1-0.5-2.1-1.6-3.4-1
			c-1.8,0.9-3.6,1.7-4.6,3.6C291.3,15.5,290.9,16.4,290.6,17L290.6,17z M277.6,32.3c1-0.3,2.1-0.7,3.2-0.8c1.7-0.3,2.3-1.8,2.6-2.9
			c0.3-1.4,0-3.1-0.3-4.6c-0.2-1-0.8-2-1.5-2.9c-0.8-1.1-1.8-2.1-2.9-3c-0.6-0.5-1.5-0.7-2.2-1.1c-1.2-0.7-2.3-1.4-3.9-0.6
			c-2.1,1-3.3,2.6-4,4.7c-0.1,0.3-0.1,0.7,0,1c1.2,3.6,2.6,7.1,5.9,9.4C275.3,32.1,276.5,32.1,277.6,32.3L277.6,32.3z"/>
		<path d="M483.5,0h3c0,0.7,0.3,1,1.1,1.1c3.2,0.5,5.4,2.3,6.6,5.3c0.5,1.2,1,2.4,1.3,3.7c0.1,0.6,0,1.3-0.2,1.9
			c-0.3,0.8-0.9,1.6-1.2,2.4c-1.5,3.3-4.5,4.2-7.6,4.7c-2.8,0.4-5.1-1.2-7.7-3.3c-2.8-2.2-2.7-5.1-1.9-7.7c0.9-2.8,2-6.1,5.8-6.8
			C483.2,1.1,483.7,0.8,483.5,0L483.5,0z"/>
		<path d="M0,86v-2c0.2-0.3,0.4-0.6,0.6-0.9c1-1,1.8-2.4,2.9-2.8c2.2-0.9,4.6-1.4,7.1-1.2c2.1,0.1,3.8,0.8,5.3,2.2
			c2.7,2.3,2.2,6.9-0.9,8.7c-1.4,0.8-2.9,1.5-4.7,1.3c-2-0.2-3.9-0.2-5.9-0.9c-2.2-0.7-3.4-1.8-4.1-3.8C0.4,86.3,0.2,86.2,0,86L0,86
			z"/>
		<path d="M519.5,0c-0.5,1.2-1.2,2.3-1.6,3.5c-1,2.6-3.1,3.4-5.6,3.5c-1.1,0-2.2,0-3.2,0c-2.3,0.1-3.8-1.2-5.4-2.6
			c-1.4-1.2-2.3-2.6-2.1-4.5C507.5,0,513.5,0,519.5,0z"/>
		<path d="M577.5,0c0.4,2.1-0.2,4-1.2,5.8c-0.8,1.4-2.1,1.2-3.2,1.3c-0.1,0-0.1,0.1-0.2,0.1c-2.9,1.5-5.9,0.5-7.3-2.4
			c-0.8-1.6-1.4-3.3-2.1-4.9C568.2,0,572.8,0,577.5,0z"/>
		<path d="M627.5,0c2.7,0,5.3,0,8,0c0.2,0.8,0.4,1.6,0.7,2.3c0.5,1.2-0.1,4.1-1.1,4.7c-3.9,2-5.8,1.4-7.7-2.5
			c-0.2-0.4-0.2-0.9-0.1-1.4C627.3,2.1,627.4,1,627.5,0L627.5,0z"/>
		<path d="M0,73V63c0.6,0.6,1.3,1.3,1.8,2c0.3,0.4,0.7,1,0.7,1.5C2.8,69.1,2.8,71.6,0,73L0,73z"/>
		<path d="M0,138l0-3c0.5,0.4,1,0.9,1.5,1c1.2,0.2,1.1,1,0.9,2H0L0,138z"/>
		<path d="M755,9h-3.4c0.3-2,0.5-2.2,1.7-1.5c0.6,0.3,1.1,0.7,1.7,1C755,8.7,755,8.8,755,9z"/>
		<path d="M293.5,378c0.1-0.5,0.2-1,0.4-2c0.7,0.9,1.2,1.4,1.6,2C294.8,378,294.2,378,293.5,378z"/>
		<path d="M0,178c0.5-0.2,0.9-0.3,1.5-0.5c-0.1,0.9-0.6,1.4-1.5,1.5L0,178z"/>
		<path d="M179.5,91.9c-0.7,2.4-1.5,4.4-1.9,6.5c-0.4,2-1.3,3.6-2.7,4.9c-0.4,0.4-0.9,0.7-1.5,0.8c-4.3,0.9-7.5-1.6-10.3-4.2
			c-1.9-1.8-3.2-4.3-2.6-7.4c0.3-1.7,0.3-3.4,0.9-5.2c0.8-2.4,1.7-4.8,2.5-7c1.6-0.3,2.9,0,4.2,0.7c1.8,1,3.7,1.8,5.1,3.4
			c0.2,0.3,0.7,0.5,1,0.7c2.1,1.3,4.2,2.6,4.4,5.5C178.7,91,179.2,91.5,179.5,91.9L179.5,91.9z"/>
		<path d="M219.1,98c2.5,0.9,4.1,2.3,5.6,3.8c1,1,2.2,1.7,3.3,2.5c2,1.6,4.1,3.4,4.5,6.1c0.6,3.9-0.1,7.7-2.1,11.1
			c-1.5,2.6-4.2,3.2-7,2c-2.2-1-3.5-3-5.3-4.5c-2.3-1.9-2.7-4.8-3.4-7.4c-0.5-1.7-0.4-3.8,0.9-5.4c0.4-0.5,0.8-1.2,0.9-1.8
			C216.6,102,218.5,100.3,219.1,98L219.1,98z"/>
		<path d="M30.5,45.1c0,1.7,0.4,3.2-0.1,4.4c-1,2.8-2.4,5.3-3.5,8c-1.3,3.1-4.3,3.8-7,4.4c-2.1,0.5-4.5,0.2-6.7,0.1
			c-4.6-0.2-6.8-4.4-4.8-8.5c0.5-1,0.7-2.2,1.2-3.2c0.7-1.4,0.9-3.2,2.6-4.1c1.5-0.8,2.9-1.3,4.7-1.3c3.7,0.1,7.3,0,11,0
			C28.7,45.1,29.5,45.1,30.5,45.1L30.5,45.1z"/>
		<path d="M341.2,98.8c0.4-1,0.8-2.1,1.2-3.1c0.4-1.2,0.8-2.3,1.1-3.5c0.7-2.7,3.9-5,6.2-4c1.9,0.8,3.9,1.3,5.8,2
			c2,0.7,3.8,1.9,5,3.9c2.1,3.5,0.5,6.6-0.4,9.8c-0.1,0.3-0.4,0.5-0.7,0.7c-1.2,1.3-2.7,2-4.5,2.7c-2.2,0.8-4,0.9-6-0.1
			c-1.2-0.6-2.3-1.3-3.5-1.8C342.4,104.3,341.7,101.8,341.2,98.8L341.2,98.8z"/>
		<path d="M317.5,110.6c0.1-1.1,0.1-2.2,0.4-3.2c0.4-1.5,1.3-2.9,1.7-4.4c0.7-2.7,2.1-3.9,4.8-4c1.4,0,2.8,0,4,0.9
			c0.7,0.5,1.6,0.8,2.4,1.1c2.8,0.9,5.6,1.8,5.9,5.4c1.8,1.8,0.5,3.5-0.2,5.2c-0.5,1-0.6,2.3-1.2,3.2c-1.7,2.6-4.4,3.8-7.3,4.2
			c-3.2,0.5-5.6-1.5-8-3.3C318.2,114.5,317,112.9,317.5,110.6L317.5,110.6z"/>
		<path d="M372.7,77.2c0.7,0.3,1.3,0.9,2,0.9c2.5,0,4.6,1.2,6.9,2.1c0.6,0.2,1.1,0.7,1.6,1.1c2.8,2.2,3.4,7.8,1.4,11.2
			c-2.4,4.1-8.2,5.9-12.5,3.8c-2-1-4.2-1.7-4.9-4.2c-0.1-0.3-0.4-0.5-0.7-0.7c-1.1-1-1.1-2.4-0.7-3.5c0.7-2.1,1.7-4,2.6-6
			c0.5-1.2,1.1-2.4,1.6-3.5C370.9,78,371.8,77.6,372.7,77.2L372.7,77.2z"/>
		<path d="M452.5,17.5c0.6-1.5,1.4-3,2.1-4.5c0.2-0.3,0.5-0.7,0.8-0.9c1.4-0.6,2.8-1.2,4.5-1.1c1.4,0,2.5,0.8,3.7,1
			c2.2,0.4,3.7,1.6,5.3,2.9c1.5,1.1,1.5,2.9,2.2,4.2c0.7,1.3,0.6,2.5,0.1,3.8c-0.3,0.8-0.9,1.6-1.2,2.4c-1.4,3.2-4.5,3.8-7.4,4.7
			c-1.7,0.5-2.9-0.7-4.4-1c-3.8-0.8-6.8-4.1-6.9-7.9C451.7,19.9,452,18.7,452.5,17.5z"/>
		<path d="M279.3,140c-0.1-0.1-0.4-0.5-0.8-0.7c-0.5-0.2-1.1-0.1-1.7-0.2c-0.4-0.1-0.7-0.4-1.1-0.5c-3.6-1.1-6.8-7.2-6-11
			c0.5-2.2,1.5-4.5,2.7-6.4c1.5-2.4,3.8-2.7,6.5-1.3c1.3,0.7,2.6,1.4,4,2c3.5,1.3,4.5,4.5,5.6,7.5c0.8,2.1-0.6,4.2-1.7,6.1
			c-0.7,1.2-1.9,2-3,3c-0.3,0.3-0.8,0.5-1.3,0.7C281.5,139.4,280.5,139.6,279.3,140L279.3,140z"/>
		<path d="M303.7,129.1c-0.9,0-1.4,0-1.9,0c-3.5,0.1-5.9-1.5-7.5-4.7c-0.9-1.8-1-3.6-0.8-5.6c0.4-2.9,1.2-5.4,3.4-7.5
			c1.6-1.6,3.4-1.6,5-1.1c2.3,0.7,4.6,1.7,6.6,3c1.5,1,2.7,2.6,4,4c0.2,3.4,0.1,6.5-2.6,9.2C308,128.2,306.1,129.8,303.7,129.1
			L303.7,129.1z"/>
		<path d="M193.5,114.7c-0.3-2,1.1-5.3,2.2-7.6c1.1-2.3,4.1-2.8,6-1.1c1.5,1.3,2.6,2.9,4.6,3.7c0.5,0.2,0.7,0.8,1.1,1.3
			c0.4,0.5,0.6,1.2,1,1.7c1.3,1.7,1.7,3.6,2,5.6c0.3,1.8-0.4,3.5-0.9,5.2c-1.1,3.8-4.8,6-8.3,4C196.2,124.6,194,120.2,193.5,114.7
			L193.5,114.7z"/>
		<path d="M390.6,77.9c-0.6-3.8,2.5-6.2,3.2-9.4c0-0.1,0.1-0.1,0.2-0.2c1.9-1,3.8-1.6,5.9-1.1c0.6,0.1,1.1,0.7,1.7,0.9
			c4,1.2,7,3.2,8.2,7.6c0.4,1.2-0.3,1.9-0.2,2.9c0.2,2.1-0.6,4-2.3,5.2c-1.6,1.1-3.5,2-5.4,2.3c-3.5,0.5-6.7-0.6-9.2-3.3
			C391.3,81.2,390,79.8,390.6,77.9L390.6,77.9z"/>
		<path d="M110.5,94.1c-3.2-0.6-6.7-2.4-9-6.3c-0.9-1.6-1.7-3.3-0.1-5c0.2-0.2,0.1-0.8,0.2-1.2c0.5-1.8,1.2-3.6,2.8-4.6
			c1.4-0.9,3.1-1.4,4.7-1.9c0.4-0.1,0.9,0.2,1.4,0.4c0.5,0.2,0.8,0.5,1.3,0.6c2.3,0.5,4.4,1.6,6.1,3c1.2,1,2.2,2.6,2.6,4.1
			C121.8,88.6,117.2,94.1,110.5,94.1L110.5,94.1z"/>
		<path d="M72.5,84.4c-2-0.5-4.2-0.5-6-1.5c-1.6-0.8-3.3-2.4-3.8-4c-1.3-4.3,1.2-8.8,5.2-11c2.2-1.2,4.5-0.6,6.8-0.9
			c2-0.3,3.5,1.2,5.3,1.3c0.2,0,0.4,0.3,0.6,0.4c1.3,1,2.2,2.3,1.9,4.1c-0.3,1.9,0.4,3.7-0.7,5.6C79.9,82.2,77.1,84.4,72.5,84.4
			L72.5,84.4z"/>
		<path d="M257.6,148.2c-0.5-0.4-0.9-0.9-1.4-1c-0.6-0.2-1.4,0-2-0.3c-2-0.9-3.9-2.1-5-4c-1.2-2.1-1.9-4.5-2.6-6.8
			c-0.6-2.1,0.7-4,1.5-5.8c1.5-3.5,2.6-3.8,6.5-3.3c2.4,0.3,3.6,2.1,5.4,3.1c2.9,1.7,3.4,5.1,4.5,8c0.3,0.9,0.4,2.1-0.5,3
			c-0.3,0.3-0.3,0.9-0.4,1.4c-0.3,1.8-1,3.4-3,4.1C259.6,147,258.7,147.6,257.6,148.2L257.6,148.2z"/>
		<path d="M434.4,66c-0.3,1.1-0.6,2-0.9,2.9c-0.7,2.1-1.8,3.8-3.7,5.1c-2.1,1.4-4.4,1.1-6.7,1.1c-2.9,0-5.1-1.4-6.4-3.9
			c-1.8-3.5-1.8-7.2,0.3-10.6c0.9-1.4,2.4-2.4,3.8-3.4c0.8-0.6,2-0.6,3.1-1c0.3,0.2,0.7,0.8,1.1,0.8c2,0,3.4,1.2,5,1.9
			c2,1,2.7,2.9,3.6,4.7C433.9,64.3,434.1,65.2,434.4,66L434.4,66z"/>
		<path d="M139.6,93.2c0.9-2,2.9-2.7,5.2-2.4c2,0.3,3.5,1.4,5.3,2c2.9,1.1,3.5,4.1,5.4,5.9c0,3.1,0.6,6.2-1.3,9.2
			c-1.3,2-3.4,2-5.2,2.7c-0.7,0.2-1.6-0.5-2.5-0.6c-1-0.1-1.8-0.2-2.4-1c-0.3-0.4-0.7-0.7-1.2-0.9c-3.8-1.8-4.5-5.4-5.5-8.9
			C137.1,96.8,138.8,95.2,139.6,93.2z"/>
		<path d="M31.5,79.1c-1.9-0.1-4,0.3-6-1c-2.1-1.4-3.6-5-2.7-7.4c1.8-4.8,5.9-6.5,10.4-7.6c2.7-0.6,5.2,0.6,7.6,1.7
			c0.9,0.4,1.3,0.9,1.9,1.7c2,2.8,0.2,5.3-0.8,7.5c-0.7,1.6-2.6,2.7-4.1,3.9C36.1,79.5,33.8,79,31.5,79.1L31.5,79.1z"/>
		<path d="M449.4,64.1c-3,0-3.1,0.1-4.9-1.1c-3.9-2.5-6.7-6.8-3.7-12.1c1.3-2.3,3.4-3.9,5.9-4.7c2.3-0.8,4.4,0.8,6.6,1.2
			c0.2,0,0.4,0.3,0.5,0.5c0.9,0.9,2.1,1.8,2.8,2.9c0.9,1.5,1.4,3.2,2,4.9c0.1,0.3-0.1,0.8-0.2,1.2c-0.2,0.7-0.5,1.3-0.8,2
			c-0.2,0.5-0.3,1-0.6,1.3C454.9,62.5,452.6,64.5,449.4,64.1L449.4,64.1z"/>
		<path d="M182.3,133c-1.4-0.8-3.3-1.5-4.8-2.8c-3.2-2.6-5-6-4.9-10.4c0-2.6,0.1-4.9,2.5-6.6c1.4-1,3.5-1.6,5.1-0.9
			c3,1.5,5.5,3.7,7,6.8c0.5,1.1,1.2,2.2,1.2,3.4c0.2,2.5,1.3,5.3-1.1,7.5c-0.5,0.4-0.7,1.3-0.9,1.7C185,132.1,183.9,132.5,182.3,133
			L182.3,133z"/>
		<path d="M225.6,140.1c0-0.7-0.2-1.5,0-2.2c0.3-1.2,0.6-2.8,1.5-3.5c1.6-1.3,3.8-1.7,5.8-1.2c1.6,0.4,3.1,1.3,4.4,2.4
			c1,0.9,1.6,2.4,2.3,3.7c0.6,1.2,0.8,2.5,1.3,3.7c1.7,3.7,0.3,7.5-2.3,9.6c-0.3,0.2-0.7,0.5-1.1,0.5c-2.8,0.3-5.4-0.1-7.6-2.1
			C226.8,147.9,225.8,144.2,225.6,140.1L225.6,140.1z"/>
		<path d="M354.5,121.6c0.1-1-0.1-2.3,0.4-2.9c1.9-1.9,3.1-4.7,6.6-4.7c1.2,0,2.4,0.2,3.6,0.1c1.4-0.1,2.4,0.4,3.2,1.4
			c0.7,0.8,1.6,1.5,2.3,2.3c1.1,1.4,2.2,2.8,1.9,4.7c-0.1,0.8-0.9,1.5-0.8,2.2c0.1,2.2-1.4,3.3-2.8,4.5c-1.3,1-2.7,1.8-4.5,1.9
			c-2.1,0.1-4.2-0.6-5.7-1.6C356.2,127.7,354.1,125.2,354.5,121.6L354.5,121.6z"/>
		<path d="M339.5,141.1c-2.4,0-4.3,0.2-6.2-1.7c-2-2.1-2.9-4.1-2.8-7c0.3-6,3.7-7.5,8.2-8.3c0.8-0.1,1.7-0.1,2.4,0.3
			c3.9,2.1,7.4,4.6,6.5,9.9c0,0.2,0,0.5,0,0.8c-0.4,2.2-1,4.1-3.3,5.3C342.5,141.2,340.9,140.9,339.5,141.1L339.5,141.1z"/>
		<path d="M473.8,53.1c-4.9,0-9-4.2-9.2-9c-0.2-4.1,4.1-8.2,8.3-8.2c6.1,0,8.9,4.6,9.8,8.6c-0.9,1.7-0.7,3.8-2.2,5.3
			C478.5,51.7,476.6,53.4,473.8,53.1L473.8,53.1z"/>
		<path d="M314.5,152.3c-1.3-0.2-2.8-0.1-3.8-0.8c-1.4-0.9-2.6-2.3-3.7-3.7c-1.3-1.6-2-3.6-1.3-5.6c0.9-2.7,2.6-4.8,5.1-6.2
			c1.5-0.8,3.2-1.4,4.8-0.8c1.9,0.7,3.8,1.8,5.4,3c1.5,1.1,2.3,2.8,2.6,4.7c0.3,2.3-0.7,4.4-1.7,6.4c-0.4,0.7-1.3,1.2-2.1,1.7
			C318.2,152.1,316.4,152.3,314.5,152.3L314.5,152.3z"/>
		<path d="M386.7,103.1c2,0,3.6,0.4,5,1.1c3.4,1.8,5.6,6.2,4.7,9.9c-0.3,1.2-0.9,2.8-1.9,3.3c-2.2,1.4-4.4,3.1-7.3,2.6
			c-0.9-0.2-1.8-0.9-2.7-0.9c-2.1,0-3.2-1.5-4.1-2.8s-1.3-3.1-1.9-4.6c-0.1-0.2,0-0.5,0.1-0.7c1-2.2,1.7-4.5,3.7-6.2
			C383.9,103.6,385.1,102.7,386.7,103.1L386.7,103.1z"/>
		<path d="M299.5,155.2c-0.3,0.6-0.9,1.3-0.9,1.9c0.1,2.1-1.4,2.9-2.6,4c-1.3,1.2-2.8,1.9-4.6,2.1c-3.8,0.4-6.3-1.7-8.4-4.4
			c-2.6-3.2-1.9-9.8,2.8-11.2c0.5-0.1,0.9-0.4,1.4-0.6c2.5-1.2,5-1.8,7.2,0.6c0.3,0.3,0.8,0.3,1.1,0.6c0.7,0.6,1.6,1.2,2,2
			C298.3,151.8,298.9,153.5,299.5,155.2L299.5,155.2z"/>
		<path d="M412.2,109.3c-1.2-0.2-2.7-0.1-3.5-0.8c-1.3-1.1-3.3-1.6-3.7-3.6c-2.4-2-1.8-4.7-1.1-6.9c1.4-5,6.8-7.7,11.6-4.8
			c1.2,0.7,2.2,1.7,3.2,2.7c0.7,0.7,1.7,1.7,1.8,2.5c0.1,1.9,0.5,3.9-0.4,5.9C418.5,107.6,415.9,109.2,412.2,109.3L412.2,109.3z"/>
		<path d="M436.6,81.8c1.3,0.3,2.8,0.3,4,1c1.3,0.8,2.3,2.1,3.4,3.3c1.6,1.9,2.6,4.3,1.4,6.4c-1.4,2.5-3.6,4.7-6.6,5.4
			c-2.4,0.6-4.9,0.2-7.1-1.4c-2.4-1.7-3.2-4.2-4-6.7c-0.1-0.4,0.2-0.9,0.3-1.4c0.2-0.4,0.6-0.9,0.6-1.3c-0.1-2,1.4-2.9,2.8-3.8
			C432.9,82.2,434.6,81.8,436.6,81.8L436.6,81.8z"/>
		<path d="M498.1,42.3c-1-0.3-2.1-0.5-2.9-1.1c-1.5-1.1-3-2.3-4.4-3.6c-2.6-2.6-2.8-4.8-0.9-8c1.6-2.6,4.2-3.7,7-4.5
			c0.4-0.1,1.1,0.3,1.6,0.4c0.4,0.1,0.7,0.4,1.1,0.5c4.4,0.4,5.5,3.9,6.9,7.1c0.2,0.5-0.2,1.2-0.4,1.8c-0.1,0.4-0.5,0.7-0.5,1.1
			c0.2,2.1-1.5,3.1-2.8,4.2C501.6,41.3,500,42.3,498.1,42.3L498.1,42.3z"/>
		<path d="M219.6,150.5c0,0.7,0,1.3,0,2c0,3.2-1.5,4.5-4.7,4.7c-1.9,0.1-3.4-0.3-4.5-1.9c-0.3-0.5-0.8-0.9-1.2-1.2
			c-3.3-2.2-3.4-6-4.4-9.3c-0.6-1.9,0.9-3.6,2-5.1c1.3-1.8,3.2-1.8,5-1.4c1.2,0.3,2.4,1.1,3.4,2C218,142.9,219.9,146.2,219.6,150.5
			L219.6,150.5z"/>
		<path d="M127.4,117c-0.4-0.2-1-0.9-1.5-0.9c-2.3,0.1-3.8-1.6-5.7-2.3c-0.6-0.2-1.2-0.9-1.5-1.6c-0.8-1.7-2.1-2.9-2.5-5
			c-0.5-2.4-0.9-2.4,0.7-4c0.5-0.5,0.9-1,1.4-1.4c2.4-1.7,4.8-2.8,7.7-1c2.9,1.7,4.8,4.1,6.4,7c1.4,2.4,1.1,4.5-0.2,6.7
			c-0.5,0.8-1.1,1.4-2.2,1.4C129.4,116.2,128.6,116.6,127.4,117L127.4,117z"/>
		<path d="M87.2,88c0.9,0.1,1.9-0.1,2.7,0.2c2.9,1.2,5.3,3.2,6.4,6.2c0.5,1.2,0.5,2.9,0.1,4.1c-0.4,1.2-0.9,2.7-2.6,2.9
			c-0.5,0.1-1,0.5-1.5,0.8c-2,1.2-4,1.2-6.1,0c-1.2-0.7-2.5-1.3-3.8-1.9c-2.8-1.4-4.1-3.6-3.7-6.6c0.2-1.2,0.7-2.9,1.6-3.4
			C82.4,89.3,84.4,87.5,87.2,88L87.2,88z"/>
		<path d="M469.3,78.9c-0.3,1.4-0.5,2.5-0.9,3.6c-1,2.8-6.4,5.4-9.2,4.4c-1.3-0.5-2.5-1.2-3.7-1.9c-0.6-0.3-1.2-0.7-1.5-1.2
			c-2.3-3.4-2-7.4,1-10.4c1.8-1.9,4.2-2.3,6.8-2.4c2.1,0,3.2,1,4.4,2.3c0.5,0.5,1.1,1,1.6,1.6c0.4,0.4,0.6,1,0.8,1.5
			C468.9,77.3,469.1,78.2,469.3,78.9L469.3,78.9z"/>
		<path d="M258.6,163.8c0-0.3,0-0.7,0-1c0.1-4.4,3.5-7.1,7.5-6.6c1.2,0.2,2.4,1.1,3.6,1.5c3.2,1.1,3.8,4,4.8,6.5
			c0.8,2.1-0.2,4.2-1.5,6c-1.4,2-3.8,2-5.7,2.8c-0.4,0.2-1-0.1-1.4-0.3c-0.9-0.4-1.8-0.9-2.6-1.4
			C259.9,169.8,258.5,167.3,258.6,163.8L258.6,163.8z"/>
		<path d="M156.5,119c0.8,0.1,1.7-0.1,2.4,0.3c4.9,2.2,7.5,6.2,8.6,11.2c0.5,2.2-0.8,4-2.3,5.5c-1.2,1.2-2.8,1.5-4.3,0.8
			c-3.9-1.8-7-4.1-8.7-8.4c-0.7-1.7-0.8-3.4-0.5-5.1C152.1,120.4,153.8,119.1,156.5,119L156.5,119z"/>
		<path d="M51.1,82.1c2.8,0.2,4.9,1.3,6,4c0.4,0.9,0.8,1.8,1.2,2.6c-0.2,0.4-0.7,0.8-0.6,1.1c0.1,1.7-0.8,2.9-2.1,3.7
			c-1.3,0.8-2.6,1.8-4.3,1.6c-2.1-0.3-4.5,0.7-6.4-1c-2.3,0.2-3.2-1.7-4.6-3c-0.9-0.8-1.1-3.8-0.3-4.7c1.2-1.2,2.5-2.5,4-3.3
			c1.4-0.9,3.1-1.3,4.6-1.9C49.4,81.5,50.2,82,51.1,82.1z"/>
		<path d="M477.5,68c0.2-2.9,1.1-5.3,4.1-6.4c0.8-0.3,1.5-0.8,2.2-1.1c0.9-0.4,1.8-0.8,2.7,0.2c0.2,0.2,0.6,0.3,0.9,0.4
			c3.5,0.6,5.1,3.3,6,6.2c0.7,2.2-0.5,4.4-1.8,6.1c-1.3,1.8-3.4,3-5.8,2.7c-1.7-0.2-3.4-0.9-5.1-1.4c-0.2-0.1-0.4-0.3-0.6-0.5
			C478.5,72.5,477.5,70.5,477.5,68L477.5,68z"/>
		<path d="M369.6,140.7c1.3-1.8,3.6-1.8,5.4-2.6c0.6-0.2,1.5,0,2.1,0.3c2.6,1.2,4.8,3,5.9,5.7c0.5,1.2,0.7,2.9,0.4,4.1
			c-0.4,1.4-1.5,2.7-2.6,3.7c-0.9,0.9-2.3,1.4-3.5,1.8c-1.6,0.5-3.4,1-4.7-0.3c-1.3-1.2-2.9-1.8-3.8-3.6c-0.6-1.2-1.5-2.1-1.2-3.5
			C367.3,144.1,368.4,142.4,369.6,140.7z"/>
		<path d="M530.4,23.1c-0.3,1-0.5,1.9-0.8,2.8c-0.7,2-2.2,3.3-4,4.1c-0.8,0.4-2.1,0-2.8,0.5c-1.2,0.7-1.9-0.4-2.8-0.5
			c-1.3-0.1-2.9-1-3.7-2.1c-1.8-2.3-2.3-5.2-1.4-8c0.4-1.2,0.8-2.7,2.6-3c0.4-0.1,0.7-0.7,1.1-0.9c0.6-0.3,1.3-0.7,2-0.8
			c1.8-0.3,3.7-0.1,5.2,1.1c1.4,1.2,2.7,2.6,3.9,4.1C530.1,21.1,530.1,22.2,530.4,23.1L530.4,23.1z"/>
		<path d="M324.2,174.9c-4.3-1.8-7.5-6.1-4.4-11.1c1.6-2.7,4.2-3.9,7.4-3.7c2.6,0.2,4.8,1.2,5.8,3.8c0.3,0.8,0.8,1.5,1.1,2.2
			c0.8,1.6,1,3.4,0,4.7c-1.8,2.4-4,4.5-7.4,4.2C325.9,175.1,325,175.2,324.2,174.9z"/>
		<path d="M350.6,148.9c1.7,0.6,3.4,0.8,4.7,1.6c2.6,1.5,4.2,6.4,3.1,9.1c-0.5,1.1-1,2.5-2,3c-2.1,1.1-4.2,2.3-6.9,1.5
			c-2.4-0.7-4.3-1.6-5.5-4c-1.6-3.5-1.6-3.4,0-6.8C345.4,150.3,348.3,150.1,350.6,148.9L350.6,148.9z"/>
		<path d="M399.4,127.8c3-0.5,4.8,1.1,6.4,3.2c1.6,2.1,2.5,4.4,1.4,6.9c-1.3,3.2-3.6,5.1-7.2,5.1c-3.6,0-5.7-2.3-7.5-5
			c-0.7-1.1-1.3-2.4-0.9-3.8c0.7-2.3,2.1-4.2,4-5.5C396.7,128.1,398.1,128.1,399.4,127.8L399.4,127.8z"/>
		<path d="M190.1,143.1c1.2-0.2,2.2,0.2,3.1,1.1c0.9,1.1,2,2.1,3,3c2.2,1.9,2.6,4.7,3.3,7.2c0.6,2.1-0.9,3.9-2.3,5.5
			c-1.2,1.3-2.7,1.4-4.1,0.9c-1.1-0.4-2.1-1.2-3.1-2c-3.2-2.5-3.8-6.4-5.4-9.8c-0.2-0.3-0.1-0.9,0.1-1.2c0.7-1.2,1.4-2.4,2.2-3.5
			C187.7,143.4,188.8,142.9,190.1,143.1L190.1,143.1z"/>
		<path d="M415.6,123.1c0.3-0.4,0.6-1,0.9-1.6c1.5-3.1,4.3-4.7,7.6-4.3c0.8,0.1,1.6,0.7,2.4,0.9c4,0.9,6.7,6,4.7,9.5
			c-1.3,2.4-3.6,4.2-6.5,4.5c-3.3,0.3-5.9-1.3-7.4-4.4C416.8,126.2,416.3,124.7,415.6,123.1L415.6,123.1z"/>
		<path d="M245.8,180.3c-2.1-1.3-4-2.4-5.9-3.6c-0.5-0.3-0.9-0.8-1.1-1.3c-0.8-1.7-1.5-3.4-2-5.2c-0.2-0.5,0.2-1.2,0.4-1.9
			c0.1-0.5,0.4-0.9,0.5-1.3c0.5-2.5,4-4.7,6.2-3.7c1.3,0.5,2.4,1.4,3.5,2.2c2.1,1.5,3.1,4,4,6.2c0.7,1.8,0.8,4-1.2,5.4
			C248.7,178.1,247.3,179.2,245.8,180.3L245.8,180.3z"/>
		<path d="M301.5,171.1c1.8-0.5,3.4,0.5,4.8,1.4c1.2,0.9,2.8,2.1,3.1,3.4c0.6,2.9,0.9,5.9-2.1,8c-2.5,1.7-4.5,3.1-7.6,1.1
			c-0.6-0.4-1.4-0.6-2-1c-0.8-0.6-1.5-1.2-2-2c-1.8-2.6-1.3-5.3,0.5-7.6C297.4,172.8,298.6,170.5,301.5,171.1L301.5,171.1z"/>
		<path d="M502.6,57.9c0-0.7-0.2-1.4,0-2c0.6-1.5,1.1-3.2,2.2-4.3c1.3-1.2,3.2-2.1,5-1.5c1.9,0.6,3.6,1.5,5.4,2.4
			c0.1,0,0.2,0.3,0.2,0.4c0.6,1.2,1.3,2.3,1.7,3.6c0.2,0.8,0,1.7-0.1,2.5c-0.1,0.5-0.3,1-0.5,1.6c-0.2,0.5-0.3,1.1-0.6,1.6
			c-1.4,2.1-3.9,2-5.9,2.9c-0.3,0.1-0.9-0.2-1.4-0.4c-0.4-0.1-0.7-0.4-1.1-0.5C504.5,63.4,502.6,61.1,502.6,57.9L502.6,57.9z"/>
		<path d="M456.5,114.4c-0.5,1-1.3,2.2-1.8,3.5c-0.8,2.3-2.8,2.6-4.7,3.1c-2.5,0.7-4.5-0.9-6.4-2c-0.9-0.5-1.4-1.7-1.9-2.7
			c-1.5-2.9-1.3-4,0.8-6.5c0.5-0.6,1-1.1,1.6-1.6c2.7-2.5,4.7-2.9,7.8-0.9c1.5,0.9,2.6,2.5,3.6,3.9C456,112,456.1,113.2,456.5,114.4
			L456.5,114.4z"/>
		<path d="M546.7,19.3c-1.1-0.3-2.2-0.6-3.2-0.9c-2.1-0.5-2.8-2.4-3.7-4c-1.2-2-1.3-3.8,0.1-5.7c2.8-4.1,8.3-5.1,12-1.7
			c2.2,2,2.4,5,1.5,7.7C552.3,17.8,550,19.2,546.7,19.3L546.7,19.3z"/>
		<path d="M277.6,181.8c1.3,0.4,2.6,0.8,3.9,1.3c3.8,1.8,5.1,6.1,2.9,9.5c-1.4,2.1-3,4.1-6,3.5c-0.9-0.2-1.7-0.6-2.5-0.9
			c-3.1-1.3-4.1-4.2-5.2-7c-0.1-0.3,0-0.8,0.1-1.2C272,183.8,273.7,182.1,277.6,181.8L277.6,181.8z"/>
		<path d="M468.6,108.4c-3.7-3.2-4-6-1-9.6c0.8-0.9,1.7-2.1,2.8-2.4c2.5-0.8,5.1-0.2,7.2,1.4c2.1,1.6,2.9,4.1,2.8,6.2
			c-0.2,3.1-3.3,5.9-7.4,6.1C471.8,109.7,469.9,109.5,468.6,108.4z"/>
		<path d="M132.3,126.6c1.1-0.4,1.8-0.6,2.3-0.9c1.3-0.9,2.6-0.8,4,0c1,0.6,2.1,1,3.1,1.6c0.6,0.4,1.2,0.9,1.7,1.4
			c0.7,0.8,1.1,1.8,1.8,2.7c1.5,2,1.7,4.3,1.4,6.6c-0.1,1.3-1,2-2.4,2.1c-3.1,0.4-5.5-1.2-7.7-2.9c-1.3-1-2.6-2.5-3.2-4
			C132.6,131.2,132.6,128.9,132.3,126.6L132.3,126.6z"/>
		<path d="M230.4,179.5c-0.3,0.6-0.6,1.4-1,2.1c-1.5,2.7-3.4,3.1-6.2,1.8c-2.7-1.3-4.2-3.6-5.6-6.1c-2-3.4-0.5-6,1.9-8.3
			c0.5-0.5,1.6-0.9,2.2-0.6c1.5,0.5,3.3,1.1,4.3,2.2c1.4,1.6,2.4,3.7,3.4,5.7C230,177,230.1,178.1,230.4,179.5L230.4,179.5z"/>
		<path d="M534.3,52.9c-2.6,0.8-4.1-0.6-5.6-2.3c-2.3-2.5-2.7-4.4-0.7-7c1-1.4,2.4-2.9,3.8-3.3c3-0.8,5.9,0.2,8,2.7
			c0.6,0.8,0.7,2,1.1,2.9c1,2.3,0.1,5.1-2.1,6.1c-1.4,0.6-2.9,0.9-4.3,1.4C534.3,53.3,534.3,53.1,534.3,52.9z"/>
		<path d="M178.6,162.8c-0.7,0.2-1.3,0.2-1.7,0.6c-1.2,1.2-2.3,0.7-3.6,0c-3.8-2-6.1-5.3-7.5-9.2c-1.2-3.5,1.9-6.6,4.7-6
			c0.8,0.2,1.7,0.5,2.4,0.9c0.9,0.5,1.8,1,2.5,1.7c0.7,0.7,1.1,1.6,1.6,2.5c0.6,1.1,1.4,2.2,1.5,3.3
			C178.8,158.6,178.6,160.7,178.6,162.8L178.6,162.8z"/>
		<path d="M490.3,92c0.4-1.2,0.8-2.4,1.3-3.6c0.2-0.5,0.6-1.1,1-1.2c1.6-0.8,3.3-1.4,5-2c0.2-0.1,0.5,0.2,0.7,0.2
			c3.7,1.7,4.4,2.4,6,6c0,0.1,0.1,0.1,0.1,0.2c0,0.7,0.3,1.4,0,1.9c-0.7,1.3-1.4,2.7-2.5,3.7c-1.5,1.3-3.3,2-5.5,1.9
			c-1.7,0-2.4-1.3-3.4-2.2c-0.3-0.3-0.6-0.6-0.9-0.9C490.8,95.1,490.3,93.8,490.3,92L490.3,92z"/>
		<path d="M111.8,120.6c-0.9,0.4-1.6,0.5-2.1,0.9c-1.5,1-3.2,0.8-4.7,0.3c-2.9-1.1-5.3-3-7.4-5.3c-1.4-1.5-1.3-3.2-0.7-4.6
			s1.8-2.7,3.8-2.8c2.3-0.2,4.1,0.7,6.1,1.6c2.1,1,3.7,2.4,4.3,4.5C111.6,116.9,111.5,118.8,111.8,120.6L111.8,120.6z"/>
		<path d="M410.9,153.1c0.7,0,1.4-0.1,2,0c1.7,0.5,3.5,0.9,4.4,2.5c2,3.5,1.8,4.2-0.3,7.5c-0.9,1.6-2.6,2.4-4.3,2.8
			c-1,0.2-2.3-0.6-3.5-1c-0.4-0.1-0.7-0.5-1.1-0.6c-1.6-0.6-2.8-1.4-2.7-3.4c0-0.3-0.5-0.6-0.6-1c-0.2-0.5-0.4-1.1-0.3-1.6
			C405.2,155.2,407.8,153.1,410.9,153.1L410.9,153.1z"/>
		<path d="M387.8,176.4c-2.5-0.2-4.2-0.7-5.1-1.7c-2.4-2.5-2.5-4.8-1.3-8.1c0.5-1.4,1.6-1.5,2.5-2c1-0.6,2.2-1,3.4-1.4
			c0.3-0.1,0.8,0.2,1.1,0.4c0.7,0.4,1.4,0.9,2.2,1.1c1.8,0.4,2.1,1.9,2.8,3.2c0.2,0.5-0.1,1.3,0.2,1.7c1.1,1.2-0.2,2.1-0.1,3.1
			c0.2,1.4-0.9,2.2-1.9,2.7C390.5,176,389.1,176.1,387.8,176.4L387.8,176.4z"/>
		<path d="M334.1,186.3c0.9-0.4,1.9-1,3-1.2c3.9-0.6,7.4,2.3,8.5,6.1c0.4,1.3,0.2,2.6-1.1,3.6c-0.9,0.7-1.6,1.7-2.5,2.4
			c-0.5,0.4-1.2,0.8-1.9,0.9c-3.3,0.5-6.8-2-8-5.1c-0.4-1-0.5-1.8,0.1-2.8C332.8,189,333.4,187.7,334.1,186.3L334.1,186.3z"/>
		<path d="M363.3,187.2c-1.1-0.1-2.6,0.1-3.3-0.5c-1.9-1.5-4-3.1-3.4-6.1c0.1-0.6,0-1.3,0-2c0.1-0.5,0.2-1,0.5-1.4
			c3.5-3.5,6-4.4,10-1c1,0.8,2,1.9,2.4,3.1c0.6,2.2-0.2,4.2-1.6,6C366.7,186.9,365.2,187.4,363.3,187.2L363.3,187.2z"/>
		<path d="M514.6,81c0.3-0.4,0.6-0.7,0.7-1c0.5-1.8,1.9-2.9,3.2-4.1c1.2-1.1,4.8-1.2,6-0.2c0.9,0.8,1.9,1.7,2.6,2.7
			c0.8,1.2,2,2.5,1.3,4.1c-0.6,1.4-1.5,2.8-2.6,3.8c-1.6,1.4-3.6,2.5-5.9,1.5c-1.8-0.7-3.2-1.9-3.9-3.9
			C515.7,83,515.2,82.1,514.6,81L514.6,81z"/>
		<path d="M69.6,110.1c0,0.1,0,0.2-0.1,0.3c-2.1-0.5-4.2-0.9-6.3-1.5c-0.3-0.1-0.6-0.3-0.8-0.6c-1.1-1-2.2-2.1-3.2-3.2
			c-1-1.1-1.1-2-0.2-3.1c1.9-2.2,4.3-3.4,7.2-3c0.8,0.1,1.4,0.7,2.2,0.9c2.5,0.7,4.5,1.9,5.7,4.3c1.6,3.3,0,5.7-3.6,5.7
			C70.3,110.1,70,110.1,69.6,110.1L69.6,110.1z"/>
		<path d="M429.6,147.9c-0.5-1.8,0.5-3.1,1.9-4.1c2.9-2.2,6.1-2.3,8.9-0.2c2.8,2.1,2.9,7.8,0.2,10c-0.4,0.3-0.9,0.4-1.4,0.5
			c-0.4,0.1-1-0.1-1.2,0.1c-1.6,1.8-3.1,0.7-4.4-0.2C431.5,152.6,429.1,151.2,429.6,147.9L429.6,147.9z"/>
		<path d="M307.6,202.3c0-3.6,2.8-6.2,6.4-6.3c3.4-0.1,6.7,3,6.6,6.6c0,1.6-0.5,3.2-1.4,4c-1.4,1.2-3.3,2.1-5.1,2.3
			c-2,0.2-3.5-1.5-5-2.9C307.9,205,307.3,203.7,307.6,202.3L307.6,202.3z"/>
		<path d="M209.8,182.5c-0.1,0-0.1,0-0.2,0c0,0.8,0.1,1.5,0,2.2c-0.2,1.9-2.7,3.8-4.3,3.1c-4-1.8-6.6-4.7-7.7-8.9
			c-0.4-1.6,0.6-2.9,1.2-4.2c0.9-2,2.3-2,4-1.6c3.2,0.8,4.6,3.6,6.3,6C209.6,180.1,209.6,181.4,209.8,182.5L209.8,182.5z"/>
		<path d="M249.6,196.1c0-0.8,0-1.2,0-1.6c0.1-3.3,3.5-5.5,6.5-4.1c3.9,1.7,5.8,4.5,5.5,8.8c-0.2,2.7-2.9,4.4-5.5,4.1
			c-2.1-0.2-3.1-1.6-4.5-2.8C250.1,199.2,249.1,197.8,249.6,196.1L249.6,196.1z"/>
		<path d="M466.6,137.7c0,1.5,0.3,3.1-1.2,4.2c-1.5,1.1-2.9,2.2-4.8,2.2c-3.2,0-6.6-3.4-6.5-6.5c0.1-3.1,3.7-7,6.3-6.4
			c1.7,0.4,3.8,0.7,5.2,2.3C466.8,134.9,466.5,136.3,466.6,137.7L466.6,137.7z"/>
		<path d="M30.4,104.1c-2.8,0.3-5.1-0.8-7.4-1.9c-1-0.5-2-1.2-2.8-2c-1-1-0.9-1.9,0-3.1c1.6-2,4-2.4,6.2-3c2-0.5,3.7,1.1,5.6,1.2
			c0.2,0,0.4,0.3,0.6,0.5c1.1,1.1,2.2,2.1,3.2,3.2c1.3,1.4,1,3.1-0.7,3.9C33.6,103.6,32.1,104.6,30.4,104.1L30.4,104.1z"/>
		<path d="M557.9,29.8c1.3,0.3,2.7,0.2,3.5,0.8c2,1.5,3.7,3.2,3.3,6.2c-0.3,2.5-2.7,5-5.2,5.3c-3.3,0.4-5.1-1.5-6.7-3.8
			c-0.6-0.9-1.2-2.2-1-3.2c0.4-1.6,1.2-3.3,2.8-4.3C555.5,30.3,556.8,30.1,557.9,29.8L557.9,29.8z"/>
		<path d="M484.8,120.8c1.4,0.5,3.1,0.6,4,1.5c1.2,1.3,1.9,3.2,2.7,4.9c0.1,0.1,0,0.3-0.1,0.5c-1.1,2.7-3,4.6-5.8,5.4
			c-1.3,0.4-2.6,0.2-3.6-1c-0.8-1-1.8-1.7-2.6-2.7c-0.4-0.5-0.8-1.3-0.8-2C478.3,123.9,481.1,121.1,484.8,120.8L484.8,120.8z"/>
		<path d="M295.9,213.4c-0.5,1.5-0.7,3.3-1.7,4.4c-1.6,2-5.6,1.7-7.5-0.2c-0.8-0.8-1.5-1.5-2.3-2.3c-0.3-0.4-0.8-0.8-0.8-1.2
			c0-1.2-0.3-2.7,0.3-3.6c0.9-1.3,2.2-2.7,3.6-3.3c2.1-0.9,4.2,0.2,6,1.5C295.1,209.8,296,211.3,295.9,213.4L295.9,213.4z"/>
		<path d="M552.5,71.4c-1.1,2.1-2,4.8-5.5,4.8c-1.1,0-3.7-0.2-4.5-0.9c-2-1.7-2.4-3.8-1.9-6.2c0.6-2.5,2.1-4,4.7-4
			c0.8,0,1.5,0,2.2,0c1.8,0.1,3.7,1.6,4.1,3.3C551.8,69.3,552.1,70.2,552.5,71.4L552.5,71.4z"/>
		<path d="M159.4,164.9c-3.9,1-6.7-0.7-8.8-3.5c-2-2.6-3.7-5.5-2.8-9c1.1-0.5,2-0.9,3-1.3c2.2,1.6,4.8,2.6,6.5,5.1
			C159.3,159,160,161.6,159.4,164.9L159.4,164.9z"/>
		<path d="M580.9,30.7c-1.1-1-2.4-2-3.1-3.2c-1.8-3.3-1.8-3.2,0.7-5.7c0.3-0.3,0.6-0.6,0.9-0.9c2.4-2,4.1-2.2,6.6-0.5
			c0.9,0.6,1.9,1.5,2.3,2.5c1.5,3.7-1.5,8.1-6.1,8.2C582.1,31,581.3,31.1,580.9,30.7z"/>
		<path d="M503.6,116.2c0-1.3-0.3-2.8,1.1-3.6c1.5-0.9,2.9-2.1,4.5-2.4c2.1-0.4,6.3,3.8,6.3,5.9c0,2.2-4,5.9-6.3,5.9
			C506.5,122.1,503.6,119.1,503.6,116.2L503.6,116.2z"/>
		<path d="M118.3,131.1c0.2,0,1-0.1,1.5,0.2c3.3,1.6,5.9,4,7.5,7.3c1.2,2.7-0.6,5.2-3.5,4.4c-2.9-0.8-5.6-2.4-7.3-5
			c-0.6-0.8-0.9-1.8-1.3-2.7C114,132.7,115.1,131.1,118.3,131.1L118.3,131.1z"/>
		<path d="M229.6,199.9c0-3.1,1-4,4.1-3.8c0.8,0.1,1.6,0.4,2.2,0.9c1,0.8,1.8,1.7,2.7,2.6c1.5,1.7,2.3,3.6,2.1,5.9
			c-0.2,1.6-1,2.3-2.5,2.5C233.4,208.7,229,204.1,229.6,199.9L229.6,199.9z"/>
		<path d="M179.9,177.3c2.4-0.5,4.3-0.2,6.2,1.8c1.8,1.9,3.5,3.8,4.3,6.4c0.4,1.3,0.2,3.1-0.6,4c-0.8,0.8-2.7,1-3.9,0.3
			C180.5,186.8,178.7,183.6,179.9,177.3L179.9,177.3z"/>
		<path d="M375.1,210.1c-1.8,0.3-3.4-0.7-4.7-1.9c-0.8-0.8-1.3-2.3-1.4-3.5c-0.2-3,2.5-5.5,5.9-5.6c2.8-0.1,5.6,3,5.6,6.1
			C380.5,207.8,378.6,210.2,375.1,210.1L375.1,210.1z"/>
		<path d="M349.8,221.1c-0.3-0.1-1.2-0.5-2-1c-2.8-1.4-3.6-3.9-2.3-6.7c2.2-4.6,5.8-4.1,9.1-1.6c1.2,0.9,2.1,2.5,1.9,4.1
			C356.3,218.7,353.3,221.1,349.8,221.1L349.8,221.1z"/>
		<path d="M448.2,167.1c3.1,0,5.6,2.4,5.4,5.6c-0.1,2.6-2.6,5.4-5,5.4c-3,0-6-2.7-6-5.4C442.6,169.2,444.7,167.1,448.2,167.1z"/>
		<path d="M399.8,199.1c-4.2,0.5-6.2-2.5-6.2-5.5c0-2.4,3-5.6,5.5-5.3c1.4,0.2,2.8,1.3,4.1,2.1c1.4,0.9,1.4,2.3,1.4,3.7
			C404.6,197.7,403.2,199.1,399.8,199.1L399.8,199.1z"/>
		<path d="M423.7,177.2c0.4,0.2,0.7,0.6,1.2,0.8c2.4,0.6,3.4,2.5,4.3,4.5c0.3,0.7,0.3,1.9,0,2.6c-1.6,2.8-0.6,3.2-4.8,3.1
			c-0.3,0-0.7-0.1-1,0c-2.1,0.3-3.4-0.9-4.5-2.5c-0.4-0.5-0.6-1.2-0.9-1.8c-0.6-1.1-0.4-2,0.5-2.9
			C419.9,179.3,421.5,177.9,423.7,177.2L423.7,177.2z"/>
		<path d="M564.7,60.2c0.3-0.7,0.9-1.4,0.9-2c0-1.4,0.6-2.4,1.9-2.9c1.2-0.4,2.5-0.8,3.7-1.1c0.4-0.1,1,0.2,1.3,0.5
			c2.2,1.7,3.7,3.8,3.1,6.8c-0.2,1.2-1.6,3.2-2.8,3.5c-3.3,1-5.8-0.1-7.4-3.3C565.2,61.2,564.9,60.7,564.7,60.2L564.7,60.2z"/>
		<path d="M83.6,117.1c2.1-0.4,3.6,1.1,5.4,1.8c2.3,0.9,3.4,2.8,4.4,4.8c0.6,1.3-0.2,3-1.5,3.2c-1.2,0.2-2.6,0.4-3.7-0.1
			c-3.2-1.3-6-3.2-8.1-6c-0.7-0.9-0.6-1.8,0-2.7C81,117,82.2,117,83.6,117.1L83.6,117.1z"/>
		<path d="M324.8,231.2c-2.1,0.1-2.8-1.2-3.6-2.9c-1.6-3.6,0.5-6.9,4.4-7.3c2.6-0.2,3.8,1.4,5.1,2.9c1.3,1.4,1.3,4.4-0.2,5.6
			c-1.2,1-2.5,1.8-3.8,2.6C325.9,231.7,325.3,231.1,324.8,231.2z"/>
		<path d="M264.8,225.7c-0.5-0.6-1.1-1.3-1.8-1.8c-1.6-1.2-1.8-2.9-1.4-4.5c0.6-2.9,4.2-4.6,6.8-2.8c1.4,1,2.4,2.5,3.3,4
			c2,3.5,0.2,6.4-4,6.4C266.6,227.5,265.7,226.7,264.8,225.7z"/>
		<path d="M477.6,161.8c0,2.6-2.7,5.3-5.1,5.3c-2.7,0-5.8-3-5.8-5.5c0-2.5,3.4-5.6,6.1-5.5C475,156.1,477.6,159.2,477.6,161.8
			L477.6,161.8z"/>
		<path d="M533.6,111.2c-0.5-0.3-0.9-0.7-1.3-0.8c-3.1-1.1-4.1-3.4-3.7-6.5c0.2-1.5,2-3.5,3.5-3.8c3.5-0.5,4.9,0.2,6.6,3.4
			c0.3,0.6,0.9,1.5,0.7,2c-0.7,1.8-1.6,3.5-3.4,4.4C535.2,110.3,534.5,110.7,533.6,111.2L533.6,111.2z"/>
		<path d="M607.8,19.2c-1-0.1-2.1-0.1-2.9-0.5c-1.9-1.1-3.1-3-3.2-5.1c-0.1-1.9,1.7-2.9,3.3-3.6c0.2-0.1,0.3-0.1,0.4-0.2
			c1.1-0.9,2.5-1.1,3.5-0.4c1.4,1,3,2.4,3.5,4C613.5,16.7,610.9,19.7,607.8,19.2L607.8,19.2z"/>
		<path d="M46.4,108.1c1.1,0.4,1.8,0.9,2.6,0.9c3.3,0,5.3,2.1,7.2,4.3c1,1.2,0.4,3.3-1.2,3.6c-1.2,0.3-2.6,0.4-3.7,0
			c-2.3-0.8-4.5-1.8-6.6-2.9c-1.2-0.6-2.1-1.8-3-2.5C42.3,108.4,45.2,109.7,46.4,108.1L46.4,108.1z"/>
		<path d="M307.2,237.6c-0.3,0.7-0.5,1.4-0.9,2c-1.1,1.8-2.7,2.9-5,2.4c-1.7-0.3-3.2-0.7-4-2.6c-1.6-3.6-1.1-5.2,2.4-6.9
			c2.6-1.2,6.2-0.5,6.9,3.5C306.7,236.6,307,237.1,307.2,237.6L307.2,237.6z"/>
		<path d="M496.1,156c-0.9-0.7-2.5-1.4-3.6-2.6c-2.2-2.3-1-6.2,2.1-7.2c3-1,5.3,0.1,6.8,3c0.4,0.7,1,1.6,0.9,2.2
			c-0.2,1.1-1,2.1-1.6,3c-0.2,0.4-0.8,0.5-1.3,0.7C498.5,155.4,497.6,155.6,496.1,156L496.1,156z"/>
		<path d="M213.5,200.1c1.2,0.7,2.4,1.4,3.6,1.9c2.9,1,2.9,4,4.4,6c0.1,0.1,0,0.4,0,0.5c-0.9,1.2-1,3.1-2.6,3.7
			c-0.9-0.4-1.7-0.7-2.5-1s-1.8-0.6-2.3-1.2c-1.2-1.3-2.2-2.9-3.2-4.4c-0.2-0.3-0.2-0.8-0.2-1.2
			C210.4,202.1,212.2,201.2,213.5,200.1L213.5,200.1z"/>
		<path d="M557.5,89.2c1,0.3,1.9,0.5,2.7,0.9c0.7,0.3,1.5,0.5,1.8,1.1c0.6,1.1,1.1,2.4,1.2,3.6c0,2-2.7,4.1-4.7,4.3
			c-2.5,0.3-3.7-1.4-5.1-2.9c-0.9-0.9-0.9-1.8-0.4-2.9C553.8,91.2,555.4,89.9,557.5,89.2L557.5,89.2z"/>
		<path d="M599.6,49.2c0,2.8-1.8,4.8-4.3,4.9c-2.3,0.1-5.6-3.1-5.6-5.4c0-1.5,3.3-4.5,5-4.5C597.6,44.1,599.6,46.1,599.6,49.2
			L599.6,49.2z"/>
		<path d="M521.4,145.2c-1.2-0.9-2.6-1.7-3.8-2.8c-1.3-1.1-1.4-4-0.5-5.2c1.7-2.3,3.2-2.7,5.5-1.5c0.4,0.2,0.9,0.4,1.4,0.6
			c1.5,0.8,2.4,2.5,2.4,3.8c0,1.3-0.7,3.1-2.3,3.8C523.2,144.3,522.4,144.7,521.4,145.2L521.4,145.2z"/>
		<path d="M169.8,191.1c-4.7-1.4-6.1-5.5-8.2-8.9c0.5-1.1,0.9-2,1.4-3.2c1,0.1,2.3-0.1,3,0.4c2.2,1.7,4.2,3.6,5.3,6.2
			C172.2,187.5,171.5,189.7,169.8,191.1L169.8,191.1z"/>
		<path d="M0.3,105.5c0.9-1.5,1.6-2.3,2.9-2.4c4-0.2,7.8,0.1,11.4,2.1c1.8,1,2.1,1.5,1.6,3.8C10.6,109.7,5.4,108.6,0.3,105.5
			L0.3,105.5z"/>
		<path d="M245.7,221.1c0.4,0.3,0.8,0.7,1.3,0.8c2.4,0.6,3.4,2.6,4.3,4.5c0.9,1.8,0.3,4.2-1.2,4.5c-1.7,0.3-3.5,0.7-5.1-1
			c-1.2-1.4-2.5-2.5-2.6-4.6c0-0.5-1.1-0.9-0.5-1.6c0.4-0.5,0.9-1,1.4-1.3C243.9,221.9,244.7,221.6,245.7,221.1L245.7,221.1z"/>
		<path d="M141.3,166.2c-0.9-0.2-1.9-0.4-2.7-0.7c-3.2-1.4-4.9-4-6.3-7.1c-1-2.4-1-2.7,1.2-4.2C139.9,157.4,142.1,160.8,141.3,166.2
			L141.3,166.2z"/>
		<path d="M435.7,202.2c1.9,0.8,3.7,1.8,4.5,3.9c0.6,1.6,0.7,2.4-0.7,3.5c-1.2,1-2.5,1.7-3.6,2.4c-2.8-0.9-4.5-2.5-5.2-4.9
			C431.5,204.6,433,202.9,435.7,202.2L435.7,202.2z"/>
		<path d="M382.6,228.7c0-2.6,1.8-4.8,4.1-4.6c2.9,0.2,4.8,2.1,4.9,5c0.1,2.2-1.8,3.9-4.2,3.9C384.3,233.1,382.6,231.6,382.6,228.7
			L382.6,228.7z"/>
		<path d="M406.6,217.8c0-2.4,2-4.5,4.5-4.6c2.1-0.1,4.5,2.2,4.5,4.3c0,2.9-1.5,4.6-4.2,4.7C408.3,222.1,406.6,220.6,406.6,217.8
			L406.6,217.8z"/>
		<path d="M192.6,206c1.8-2.3,2.7-2.5,5.1-1.2c0.4,0.2,0.8,0.3,1.1,0.5c2,1.1,4.1,4.5,3.7,6.6c-0.3,1.6-1.8,2.7-3.2,2.1
			c-2-0.9-4-1.9-4.9-4.2C193.9,208.5,193.2,207.3,192.6,206L192.6,206z"/>
		<path d="M587.4,83.5c-0.3,0.6-0.6,0.9-0.7,1.3c-1.7,3.6-3.7,4.2-7.1,2.3c-1-0.6-2.2-2.9-2-3.9c0.6-2.1,1.9-3.5,4-4
			c1.1-0.3,2.4-0.2,3.2,0.9C585.8,81.2,586.6,82.4,587.4,83.5L587.4,83.5z"/>
		<path d="M362.2,235.1c1.1-0.2,2.1,0.4,3.1,1.2c1.5,1.2,1.4,2.8,1.2,4.3c-0.1,1.6-2,3.3-3.6,3.4c-1.8,0.1-5-2.4-5.3-4.2
			c0-0.2,0-0.3,0-0.5C357.4,237.1,359.5,235.1,362.2,235.1L362.2,235.1z"/>
		<path d="M460.8,201.2c-1-0.5-1.7-0.8-2.4-1.2c-2.2-1.2-3.1-2.9-2.8-5.3c0.2-1.5,1.1-2.4,2.6-2.6c0.7-0.1,1.3,0,2,0
			c1.9,0,4.1,1.5,4.3,3c0.1,0.9,0.2,2-0.2,2.6c-0.6,0.9-0.5,2.6-2.3,2.5C461.6,200.3,461.2,200.8,460.8,201.2L460.8,201.2z"/>
		<path d="M540.6,129.2c0.5-0.9,0.8-1.7,1.2-2.4c0.4-0.6,0.9-1.4,1.5-1.5c1.5-0.2,3-0.3,4.4,0c1.2,0.2,1.6,1.5,2.1,2.6
			c1.2,2.5-0.1,5-2.9,5.3c-2.8,0.3-5.1-0.1-6-3.2C540.9,129.6,540.8,129.4,540.6,129.2L540.6,129.2z"/>
		<path d="M277.6,241.2c5.4,3.1,6.1,4.4,4.7,8.6c-1,0.5-1.9,0.9-2.7,1.3c-3.2-0.9-5.1-3-6-5.9c0.4-0.9,0.8-1.9,1.2-2.7
			C275.9,242,276.8,241.6,277.6,241.2L277.6,241.2z"/>
		<path d="M77.7,129c-1.4,2-2.6,2.7-4.2,2c-2.4-1.1-4.7-2.4-7-3.7c-0.8-0.5-1.3-1.4-1.9-2c0.8-1.7,1.9-2.4,3.5-2.2
			C72.1,123.6,75.1,125.8,77.7,129L77.7,129z"/>
		<path d="M99.8,136.3c5.2-0.6,9.4,2.2,11.4,7.6c-0.6,1.3-1.8,1.3-3,1.2c-1.1,0-2.1,0.1-2.9-0.9c-1.4-1.6-3-3.1-4.6-4.6
			C99.7,138.7,99.3,137.7,99.8,136.3L99.8,136.3z"/>
		<path d="M484.9,190.1c-2.9-0.9-4.6-2.5-5.2-5.1c0.4-0.9,0.8-1.8,1.2-2.8c1.2-0.4,2.5-0.9,3.8-1.1c1.8-0.3,2.8,1.2,3.5,2.4
			c0.5,1,0.4,2.4,0.3,3.6C488.2,189.2,485.8,188.8,484.9,190.1L484.9,190.1z"/>
		<path d="M619.8,42.4c-1.4-0.3-2.8,0-3.7-1.4c-0.5-0.9-1-1.7-1.3-2.7c-0.2-0.5-0.2-1.2,0.1-1.6c1-1.4,2.1-2.6,4.2-2.6
			c2.1,0,3.2,1.2,4.2,2.6c0.7,1,0.4,4.1-0.5,4.7C621.9,41.8,620.8,42,619.8,42.4L619.8,42.4z"/>
		<path d="M341.3,254.1c-1.5,0-2.7,0-4,0c-1.9-0.1-3.6-1.8-3.8-3.6c-0.1-1.8,1.6-4.1,3.3-4.4c2-0.3,3.8,0.1,5,1.9
			c1,1.5,1.1,3-0.2,4.5C341.5,252.9,341.5,253.4,341.3,254.1L341.3,254.1z"/>
		<path d="M565.7,118.7c0.1-1.1,0.5-2.4,1.2-3.1c0.8-0.8,2.2-1.3,3.3-1.4c1.8-0.2,4.4,2.6,4.4,4.5c0,1.8-2.1,3.4-4.5,3.4
			C567.9,122.1,565.5,120.4,565.7,118.7z"/>
		<path d="M314,256.8c0.9,0.3,2.1,0.4,2.6,1c0.8,1,1.2,2.4,1.5,3.7c0.3,1.4-2.4,3.5-4.4,3.5c-2.3,0-4.2-1.7-4.2-3.9
			C309.6,259,311.6,257.1,314,256.8L314,256.8z"/>
		<path d="M513.4,174.4c-1,1.5-1.1,3.4-3.2,3.8c-1,0.2-0.9,0.3-4.4-0.4c-0.3-0.6-0.4-1.3-0.8-1.8c-0.6-0.9-0.4-1.6-0.1-2.6
			c0.5-1.6,1.7-2.5,3.1-3.1c0.9-0.4,1.8-0.4,2.5,0.4C511.6,171.9,512.5,173.2,513.4,174.4L513.4,174.4z"/>
		<path d="M25.7,115.4c5.2-1.1,9.7,0.1,13.7,3.3c-0.3,1.8-0.7,2.2-2.3,2.4c-1.3,0.2-2.4-0.9-3.4-0.9c-2.5,0.1-4.2-1.3-6.2-2.2
			C26.5,117.6,25.6,117,25.7,115.4L25.7,115.4z"/>
		<path d="M607,69.1c2.8,0,3.6,0.8,3.6,3.5c0,2.3-1.5,4.4-3.3,4.5c-2.1,0.1-4.6-2-4.7-3.9C602.6,71,604.6,69.1,607,69.1L607,69.1z"
			/>
		<path d="M224.8,225.4c2.3-0.4,4.4,0,5.8,1.4c1.4,1.4,2.4,3.1,2,5.1c-0.1,0.8-0.8,1.6-1.5,2.1c-0.8,0.5-1.8,0.3-2.5-0.5
			c-0.6-0.7-1.2-1.4-2-1.9C224.4,229.9,224.3,227.7,224.8,225.4L224.8,225.4z"/>
		<path d="M154.6,189.9c-4.3,0.3-8.5-5.2-7.7-9.6c1.9-0.6,3.5-0.2,4.8,1.5c0.9,1.2,1.9,2.5,2.7,3.8c0.2,0.3,0.2,0.8,0.2,1.2
			C154.6,187.7,154.6,188.7,154.6,189.9L154.6,189.9z"/>
		<path d="M533.1,167.8c-3.6-1.8-3.6-1.9-3.5-4.6c0.1-1.6,0.8-2.7,2-3c2-0.5,3.9,0,4.7,1.4c0.5,0.8,0.9,1.8,1.3,2.7
			C536.7,166.1,535,166.9,533.1,167.8L533.1,167.8z"/>
		<path d="M184.4,213.8c-2.2,0.8-4.2,0.1-5.5-1.3c-1.5-1.6-2.3-3.7-3.4-5.5c2-2.6,2.7-2.7,4.8-0.6c0.8,0.8,1.6,1.4,2.2,2.3
			C183.7,210.3,185,211.8,184.4,213.8L184.4,213.8z"/>
		<path d="M117.9,157.3c1.8-0.5,3.3-0.3,4.6,1.3c0.6,0.8,1.6,1.5,2.2,2.3c1,1.5,2.4,3,1.7,5.1C121.9,166.2,117.3,161.5,117.9,157.3
			L117.9,157.3z"/>
		<path d="M444.7,233.7c-0.1-0.4-0.2-0.9-0.4-1.3c-1.1-2.3-1-2.5,0.8-4.2c1.9-1.8,3.6-1.6,5.5,0.6c1.2,1.3,1,4-0.5,5.1
			c-0.6,0.5-1.6,0.8-2.4,0.7C446.9,234.6,446,234.1,444.7,233.7L444.7,233.7z"/>
		<path d="M644,24.1c2,0.2,4,2.7,3.5,4.3c-0.6,1.8-3.5,3.2-5.3,2.5c-2.1-0.9-2.9-2.9-1.8-5.1c0.2-0.4,0.3-0.9,0.5-1.7
			C642,24.1,643,24,644,24.1z"/>
		<path d="M260.3,254.8c-2.9-0.9-4.6-2.8-5.5-5.4c-0.5-1.2,0-2.1,0.9-2.8c0.9-0.8,1.9-0.7,2.9,0.2c1.7,1.5,3.3,3.2,4,5.7
			C261.8,253.2,261,254.1,260.3,254.8L260.3,254.8z"/>
		<path d="M598.5,108.2c-2.1,3.5-3.8,3.3-5.6,2.5c-0.9-0.4-1.7-1.4-2.2-2.3c-0.8-1.6,1.1-2.6,1-4.2
			C594.9,104,597.1,105.3,598.5,108.2z"/>
		<path d="M561.5,153.1c-0.5,1-0.6,2.1-1.3,2.7c-0.7,0.7-1.8,0.9-2.9,1.4c-1-0.9-2-1.9-3-2.9c-1.2-1.3-1-2.8,0.6-3.7
			c0.9-0.6,1.9-0.9,2.6-1.3C559.8,149.7,560.8,151.2,561.5,153.1L561.5,153.1z"/>
		<path d="M426.6,241.7c0,2.6-0.7,3.4-2.9,3.4c-2.1,0-4-1.8-4.1-3.8c0-2.2,1.1-3.1,3.5-3.1C425.8,238.1,426.6,238.9,426.6,241.7
			L426.6,241.7z"/>
		<path d="M394.4,251.5c0.8-0.6,1.6-1.3,2.4-1.9c1-0.8,2.7-0.9,3.7-0.1c1.1,0.9,2.5,1.8,2.1,3.6c-0.2,1-2.1,2.7-3.1,2.9
			c-2,0.3-2.9-0.2-3.8-2C395.3,253.4,395,252.8,394.4,251.5L394.4,251.5z"/>
		<path d="M96.7,146.9c-3.7,0.8-6.2-1.2-8.6-2.9c-1-0.8-1.6-2.2-2.5-3.4c0.8-0.6,1.4-1,1.9-1.4C91.3,141,94.9,142.7,96.7,146.9
			L96.7,146.9z"/>
		<path d="M286.8,267.5c0.7-0.4,1.4-0.8,2.2-1.1c0.6-0.2,1.4-0.4,1.9-0.2c1.4,0.9,2.8,1.8,2.7,3.8c0,0.9,0,1.8,0,2.6
			c-1.9,1.2-3.5,1-5-0.2C286.9,271.2,286,269.6,286.8,267.5L286.8,267.5z"/>
		<path d="M374.6,267.1c-0.8-0.4-1.6-0.8-2.4-1.2c-1.6-0.9-1.9-2-1.1-3.7c0.3-0.7,0.6-1.3,0.9-2c3.9-0.2,4.5-1,6.2,3.2
			C378,265.8,376.1,266.2,374.6,267.1L374.6,267.1z"/>
		<path d="M468.6,220.1c0.1-2.2,1.6-3.1,3.2-4.1c1.3,1.4,3.7,1.2,3.9,3.8c0.1,2.6-1.7,3.1-3.6,3.9
			C470.6,222.9,468.5,222.6,468.6,220.1z"/>
		<path d="M631.6,66.2c-1.4-1.4-4.2-1.3-4-4.3c0.2-2.3,2-2.6,3.6-3.4C635.9,60.8,636,63.1,631.6,66.2z"/>
		<path d="M350.1,277.8c-1.5-1-3.6-1.2-3.6-3.8c0-2.4,1.9-2.8,3.5-3.6c1.5,0.8,3.4,1,3.6,3.5C353.8,276.6,351.7,276.9,350.1,277.8
			L350.1,277.8z"/>
		<path d="M61.4,132.9c-4.6,0.9-8.3-1-11.7-4.2c0.7-0.6,1.3-1.1,1.8-1.6c0.8,0.4,1.5,1,2.1,1c2.7-0.3,4.6,1.6,6.8,2.6
			C61.2,131,61.8,131.8,61.4,132.9L61.4,132.9z"/>
		<path d="M496.7,213.1c-0.9-0.5-1.8-0.8-2.5-1.3c-1-0.6-1.7-1.3-1.5-2.6c0.3-1.5,2.7-3.2,4.3-3.1c1.6,0.1,2.6,1,2.7,2.7
			c0.1,1.1,0,2.1,0,2.8C498.4,212.2,497.6,212.6,496.7,213.1L496.7,213.1z"/>
		<path d="M7.7,118.4c4.2-1.2,7.6,1.2,11.2,1.9c0.6,0.1,1,0.8,1.5,1.2c-1.4,1.6-2.4,2.1-3.4,1.3c-0.9-0.8-1.8-0.6-2.8-0.7
			c-1.7-0.3-3.5-0.6-5.1-1.2C8.3,120.5,7.4,119.7,7.7,118.4L7.7,118.4z"/>
		<path d="M161.2,205c1.9,0.9,3.6,1.6,4.8,3.7c0.9,1.7,2.2,3.1,1.3,5.3c-2.7,0.7-4-1.5-5.2-3.2C160.9,209.2,159.8,207.3,161.2,205
			L161.2,205z"/>
		<path d="M206.9,229.5c2-2,3.3-2,5.3-0.2c2.9,2.8,3.2,4.1,1,6.5C210.2,234.5,208,232.6,206.9,229.5z"/>
		<path d="M133,180.1c3,0.6,4.4,2.6,5.7,4.7c0.3,0.4,0.7,0.8,0.8,1.2c0.1,0.9,0,1.9,0,3.4c-2.1-1.1-4.2-1.3-5-3.5
			c-0.2-0.5-0.6-1-1-1.4C132.2,183.2,132.4,181.8,133,180.1L133,180.1z"/>
		<path d="M517.8,196.3c1.4,0,2.5-1.9,4-1c1.1,0.7,1.8,2.2,2.6,3.2c-1.1,1.7-1.3,4.2-4.1,3.4C518.4,201.4,517.4,199.2,517.8,196.3
			L517.8,196.3z"/>
		<path d="M582,145.8c-0.7-0.4-1.6-0.7-2.3-1.2c-1.1-0.8-1.4-2.3-0.9-3.6c0.5-1.2,1.3-1.8,2.6-1.9c2.2-0.1,3.1,1.5,4.2,2.9
			C584.9,143.7,584.3,145.4,582,145.8L582,145.8z"/>
		<path d="M619,93.6c2.5,0.4,3,2.2,3.6,3.8c-1.4,2-2.9,3.3-5.3,2.5c-1.1-0.4-1.6-1.3-1.7-2.5C615.4,94.9,617.2,94.3,619,93.6
			L619,93.6z"/>
		<path d="M322.7,282.2c1.1,0.2,1.8-1,3.1-0.4c1.7,0.7,2.9,1.8,4,3.6c-1,0.9-1.8,2-2.9,2.5c-1.5,0.8-2.6-1-4.1-1V282.2z"/>
		<path d="M244.5,254.3c-1.3,1.7-2.3,2.3-3.4,1.5c-1.2-0.9-2.4-1.9-3.1-3.1c-0.5-0.9-0.4-2.2-0.5-3.3
			C240.9,248.3,242.8,249.9,244.5,254.3z"/>
		<path d="M668.1,13.5c3.1,1.5,3.8,2.2,3.4,3.8c-0.3,1.2-2.3,2.9-3.4,2.9c-1.1,0-3.2-1.7-3.4-2.9C664.3,14.6,666.5,14.4,668.1,13.5
			L668.1,13.5z"/>
		<path d="M112.7,166c-3.1,0.3-5.2-1-6.7-3.2c-0.8-1.3-2.3-2.8-0.8-4.7C108.9,159.5,111.5,161.9,112.7,166L112.7,166z"/>
		<path d="M193.1,235.9c-1.5-0.9-1.9-2.4-2.4-3.9c-0.4-1.1,0.3-1.9,1.2-2.4c3.1,0.7,4.6,3,5.7,5.9c-0.5,0.6-1.1,1.2-1.7,1.8
			C194.9,236.7,194,236.3,193.1,235.9z"/>
		<path d="M543,185.1c1.1,0,2.2-0.2,3.2,0.1c0.8,0.2,1.7,1,2.2,1.7c0.5,0.8,0.2,1.8-0.6,2.4c-0.7,0.6-1.4,1.3-2.2,2.1
			c-1.3-1.4-3.5-1.4-4-3.2C542.1,187.2,542.5,186.3,543,185.1L543,185.1z"/>
		<path d="M658.5,49.4c0,0.6,0.1,1.1,0.1,1.6c-0.1,2.5-1.5,3.7-3.9,3c-0.8-0.2-1.7-1.1-2-1.9c-0.4-1.1-0.3-2.5,0.9-3.4
			c0.9-0.7,1.9-0.9,2.9-0.1C657,49,657.7,49.1,658.5,49.4L658.5,49.4z"/>
		<path d="M267.7,271.3c2.5-0.9,3.4,1,4.6,2.1c2,2,1.9,2.9-0.7,4.8c-0.9-1.1-2.6-0.7-3.2-2.5C267.8,274.2,267.5,272.9,267.7,271.3
			L267.7,271.3z"/>
		<path d="M459.7,258.4c-0.9-0.8-1.8-1.5-2.5-2.3c-1-1.1-0.8-2.3,0.2-3.3c1.1-1.1,3.1-1,4.3,0c1,0.9,1.1,2.2,0.2,3.3
			C461.3,256.9,460.5,257.6,459.7,258.4L459.7,258.4z"/>
		<path d="M567.2,178.1c-1-1.1-0.8-2.3,0.3-3.3c1.1-1,3-1,4.1-0.1c1.1,0.9,1.3,2.2,0.4,3.3c-0.7,0.8-1.5,1.5-2.4,2.4
			C568.7,179.5,567.9,178.9,567.2,178.1z"/>
		<path d="M645.1,88.1c-1.4,1.3-2.7,1.4-3.9,0.1c-1-1.1-0.9-3.2,0.2-4.3c1-0.9,2.1-1.1,3.1-0.2c0.8,0.7,1.5,1.5,2.3,2.5
			C646.1,87,645.6,87.6,645.1,88.1z"/>
		<path d="M603.7,129.5c1.9-1.1,3.4-0.9,4.9,0.2c1.4,1.1,1.4,3.2-0.2,3.9c-0.9,0.4-2.3,0.5-3.3,0.2c-1-0.3-1.6-1.3-1.5-2.6
			C603.6,130.7,603.6,130.1,603.7,129.5L603.7,129.5z"/>
		<path d="M81.7,147.9c-4.3,0.9-6.5-1.7-8.8-4.1c-0.2-0.2-0.2-1,0.1-1.3c0.2-0.2,0.9-0.1,1.3,0c0.5,0.1,1,0.6,1.5,0.6
			c2.1,0.3,3.8,1.4,5.2,3.1C81.3,146.5,81.4,147.1,81.7,147.9L81.7,147.9z"/>
		<path d="M33.7,130.5c0.4-0.2,0.6-0.4,0.7-0.4c1.6,0.1,3.2-0.3,4.7,0.8c1,0.8,2.6,0.8,3.8,1.4c0.9,0.4,1.9,1.1,1.4,2.5
			c-0.3,0.1-0.6,0.2-0.7,0.1c-1.7-1.5-4.2-0.3-5.9-1.9C35.8,133.4,35,131.8,33.7,130.5L33.7,130.5z"/>
		<path d="M389.8,286.9c-2.1,3-3.2,3.7-4.7,3c-1.4-0.7-1.7-1.8-1.2-4.5c1-0.4,2-0.8,3-1.3C387.8,285,388.8,285.9,389.8,286.9
			L389.8,286.9z"/>
		<path d="M407.6,276.1c1.8-2.6,2.9-2.9,5.9-1.5c0.7,3.5-0.8,5.2-4.6,4.3C408.5,278,408.1,277.1,407.6,276.1L407.6,276.1z"/>
		<path d="M305.5,294.4c-0.6,1.1-1.5,1.9-2.9,1.6c-1.1-0.2-2.9-2.1-2.9-3.1c-0.1-1.5,0.8-2.2,1.9-2.7
			C303.5,290.9,305,292,305.5,294.4L305.5,294.4z"/>
		<path d="M432.9,263.2h4.3c0.9,1.6,1.1,3.2,0,4.7C433,268.4,432.1,267.4,432.9,263.2z"/>
		<path d="M226.2,257c-2.9,0.1-5.1-2.1-5.5-5.6C225,250.5,227.2,252.7,226.2,257z"/>
		<path d="M692.6,9.3c-1.6-1.5-3.6-2.3-2.9-4.9c1-0.4,2-0.9,3.1-1.3c0.5,0.5,1.2,1,1.7,1.6c0.4,0.4,0.7,0.9,1.3,1.6
			C694.7,7.4,693.7,8.4,692.6,9.3z"/>
		<path d="M119.8,180.6c4.2,1.5,6.1,4,5.5,7.6c-0.6-0.3-1.3-0.5-1.7-0.8c-0.8-0.7-1.5-1.6-2.3-2.2
			C119.7,184,119.2,182.5,119.8,180.6L119.8,180.6z"/>
		<path d="M175.3,229.9c2.3,1.5,4.1,3.3,5,6c-0.5,0.5-1,0.9-1.7,1.4c-0.9-1.2-2.7-0.8-3.3-2.7C174.9,233,174.2,231.7,175.3,229.9
			L175.3,229.9z"/>
		<path d="M481,243.3c1.3-0.9,2-2.9,4-2.1c2,0.9,1.8,2.7,1.5,4.4c-1.5,0.9-3.1,1.1-4.6,0.1C481.6,245.1,481.3,244.3,481,243.3
			L481,243.3z"/>
		<path d="M151.3,212.7c-4.2-1.8-5.8-4.7-4-7.6C150.4,206.6,151.9,209.4,151.3,212.7z"/>
		<path d="M359.7,299.7c-0.2-1.5-0.4-3.2,1.2-4.2c0.9-0.6,1.7-0.5,2.5,0.1c1.6,1.2,1.1,2.8,1,4.2
			C362.8,300.7,361.2,300.7,359.7,299.7L359.7,299.7z"/>
		<path d="M629,123c-1-1.7-0.9-3.3,0-4.7h3.1c0.5,1.1,0.9,1.9,1.4,2.9C632.6,123.5,630.7,123.2,629,123z"/>
		<path d="M98.6,165.8c-3.7,0.5-5.9-1.2-6.8-5.3c0.4-0.1,1-0.5,1.3-0.4c0.8,0.3,1.7,0.7,2.2,1.3C96.5,162.8,98.4,163.7,98.6,165.8
			L98.6,165.8z"/>
		<path d="M682.6,40.4c0.1,1.5-1.1,2.8-2.5,2.7c-1.9-0.1-2.6-1.4-2.3-4.7C680.8,37.9,682.4,38.6,682.6,40.4z"/>
		<path d="M505.2,233.2c1.1-1.1,1.9-2,2.7-2.9c1.4,0.8,3.1,1,3.7,3c-0.9,0.9-1.9,1.9-3,2.9C507.4,235.2,506.4,234.3,505.2,233.2
			L505.2,233.2z"/>
		<path d="M14.7,132.2c3.8-0.2,7.2-0.7,9.8,2.5c-3.1,1-5.7-0.2-8.3-0.9C15.6,133.7,15.3,132.9,14.7,132.2L14.7,132.2z"/>
		<path d="M251.6,273.1c3.8,2.8,4.2,3.5,3.6,5.9c-2.8,0.1-3.8-0.8-5.3-4.6C250.5,273.9,251.1,273.5,251.6,273.1L251.6,273.1z"/>
		<path d="M532.8,225.3c-2.4-1.8-2.5-2-1.8-5.3c1.1,0.2,2.4,0.2,3.4,0.7c1.4,0.7,1.4,1.6,0.4,2.7C534.2,224,533.5,224.6,532.8,225.3
			L532.8,225.3z"/>
		<path d="M58.2,143.9c1.6,0.5,3.3,0.8,4.9,1.5c0.8,0.4,1.5,1.3,2.1,2c0.3,0.3,0.2,0.9,0.3,1.3C62.6,149.3,60.1,147.8,58.2,143.9
			L58.2,143.9z"/>
		<path d="M204.9,253.4c3.4-0.5,5.2,1.7,4.4,5.6C206.6,258.5,204.5,255.9,204.9,253.4z"/>
		<path d="M559.5,211.1c0.2,1.1-0.5,2.4-1.6,2.8c-1.2,0.5-2.1,0-3.3-1.8c0.5-1,0.9-1.9,1.3-2.9C558.1,209.1,559.3,209.8,559.5,211.1
			z"/>
		<path d="M335.9,311c-0.3-0.9-0.6-1.8-0.9-2.6c0.9-0.8,1.7-1.6,2.5-2.4c1,1,1.9,1.9,2.7,2.6c-0.3,0.9-0.6,1.6-1,2.4H335.9
			L335.9,311z"/>
		<path d="M664.9,74.6c1.2-1.9,2.8-1.6,4.5-1.3c0.3,2,0.5,3.9-1.7,4.9C666,77.6,665.7,76,664.9,74.6L664.9,74.6z"/>
		<path d="M161.9,231.9c1.7,1.4,2.1,3,1.4,5.2c-2.9-0.7-3.7-3.1-4.8-5.4C159.9,230.7,160.8,231.1,161.9,231.9z"/>
		<path d="M591.8,164.2c3.9-0.4,4.8,0.3,4.6,3.5c-0.8,0.3-1.6,0.7-2.5,1C592.8,167.6,590.9,166.7,591.8,164.2L591.8,164.2z"/>
		<path d="M137.4,211.8c-0.8-0.3-1.7-0.6-2.2-0.8c-0.7-1-1.2-1.9-1.8-2.6c-0.9-1-1-2-0.2-3.3C136.2,206.5,137.6,208.9,137.4,211.8z"
			/>
		<path d="M40.4,144.9c3.3,0.7,6.1,1,7.9,3.8c-3.1,1.2-5-1.3-7.4-1.9C40.7,146.8,40.7,146,40.4,144.9L40.4,144.9z"/>
		<path d="M77.5,162.9c2.2-1.6,3.6,0.1,5.1,0.9c1.2,0.7,1.3,2,0.7,3.4C80.8,166.4,78.8,165.3,77.5,162.9L77.5,162.9z"/>
		<path d="M280,296.2c2.3-0.1,2.9,0.3,4.6,3c-0.1,0.2-0.2,0.4-0.3,0.6c-0.3,0.5-0.7,0.9-1.1,1.5C279.8,299.4,279.3,298.6,280,296.2z
			"/>
		<path d="M188,255.2c2.7-0.1,4,1.2,4.5,4.6C189.2,260.4,187.1,258.3,188,255.2z"/>
		<path d="M316.2,319h-3.4c-0.5-1.2-0.9-2.3-1.3-3.4C315.3,314.5,316.9,315.6,316.2,319z"/>
		<path d="M235.2,273.9c1.3,2.3,4.2,3.1,3.2,6c-2.6-0.2-4.8-2.1-4.7-4.4C234,275.2,234.4,274.8,235.2,273.9L235.2,273.9z"/>
		<path d="M111.2,187c-3-0.6-5.1-3.5-4-5.9C110.6,182.8,111.8,184.6,111.2,187z"/>
		<path d="M21.6,147.4c0.2-0.2,0.4-0.4,0.5-0.5c1.7,0.5,3.5,0.9,5.2,1.6c0.9,0.4,1.6,1.2,0.9,2.6c-2.1-0.7-4.2-1.4-6.2-2.3
			C21.7,148.8,21.7,147.9,21.6,147.4L21.6,147.4z"/>
		<path d="M618.8,153.1c0.6,0.6,1.3,1.3,2,2.1c-1.3,1.3-1.9,3-3.9,2.9C616.3,154.9,616.5,154.5,618.8,153.1L618.8,153.1z"/>
		<path d="M221.2,280.9h-2.5c0.2-1.7-2.2-2.9-0.6-4.8C220.8,277.1,221.8,278.5,221.2,280.9z"/>
		<path d="M174.3,262.1c-2.7-0.2-2.7-2.6-3.8-4.4C173.8,256.5,175,257.9,174.3,262.1z"/>
		<path d="M652.9,109.3c0.5-0.4,0.8-0.7,1.2-1c0.9-0.5,1.8-0.3,2.5,0.4c0.4,0.4,0.9,1.4,0.7,1.6c-0.5,0.7-1.3,1.2-2,1.6
			c-0.4,0.2-0.9,0-1.4-0.1C653.6,111.1,653.3,110.3,652.9,109.3L652.9,109.3z"/>
		<path d="M579.7,199.3c1.7-0.6,2.9,0,3.6,1.2c0.2,0.3,0,1.1-0.3,1.5c-0.8,1.2-2,1.2-3.3,0.8L579.7,199.3L579.7,199.3z"/>
		<path d="M424.5,301.8c-1,0.4-1.8,0.7-2.6,1c-2-2.2-1.8-3.3,0.9-4.6C423.9,299.1,424.5,300.3,424.5,301.8L424.5,301.8z"/>
		<path d="M97.3,186.8c-1.9,0.8-3-0.4-4-1.6c-0.9-1-1-2-0.1-3.3C95.5,183.1,96.5,184.8,97.3,186.8z"/>
		<path d="M494.9,269.8c-0.3-0.8-0.6-1.6-0.9-2.4c1.2-1.2,2.3-2,3.3-2.2C497.9,268.8,497.4,269.8,494.9,269.8z"/>
		<path d="M468.8,277.2h4.6v2.7C469.6,280.2,468.9,279.8,468.8,277.2z"/>
		<path d="M706.5,30.8c-1,0.4-1.8,0.6-2.6,0.9c-1.1-0.9-1.6-1.9-1.1-3.3c0.8-0.3,1.6-0.6,2.5-0.9C706.6,28.2,706.8,29.4,706.5,30.8
			L706.5,30.8z"/>
		<path d="M374,319.2c2.2,2.3,2.1,3.2-0.5,5c-0.6-0.6-1.3-1.2-2.3-2.2C372.3,321,373.1,320.1,374,319.2z"/>
		<path d="M120,205.4c2.1,1.2,2.9,3.1,3.6,5.2C120.8,211.1,119.1,208.7,120,205.4z"/>
		<path d="M395.7,310.6c1-1.1,1.8-1.9,3.1-1.4c0.7,0.3,1.5,1,1.6,1.6c0.2,1.2-0.9,1.8-2,2.3C397.5,312.4,396.7,311.6,395.7,310.6
			L395.7,310.6z"/>
		<path d="M148.3,235.9c-2.9-0.3-4.3-2.5-3.1-4.7C147.9,232.3,148.7,233.5,148.3,235.9z"/>
		<path d="M447.2,292.1c-1-1.1-1.9-2-2.9-3.1c1.2-0.6,2.1-1.1,3-1.5c0.8,0.8,1.4,1.5,2,2.1C448.6,290.5,447.9,291.2,447.2,292.1
			L447.2,292.1z"/>
		<path d="M262.3,298.2c2.8,1.3,3.4,2.4,3,4.8C262.3,302.4,261,300.3,262.3,298.2z"/>
		<path d="M520.8,255.1c0.6,0.7,1.2,1.3,1.8,2c-0.7,0.9-1.2,1.6-1.9,2.5c-1.2-1.1-2.1-2-3.1-2.9C519,256,519.8,255.6,520.8,255.1z"
			/>
		<path d="M105.8,210.9c-0.2-1-0.2-2-0.5-2.7c-0.6-1.2,0.3-1.3,1-1.7c1.3,1.2,2.9,2.2,2.1,4.5H105.8L105.8,210.9z"/>
		<path d="M67.4,166.8c-2.3,0.2-3-0.1-4.2-1.8c-0.3-0.4-0.5-1.1-0.3-1.5c0.4-0.8,1.1-0.4,1.6,0.1c0.5,0.3,1.1,0.4,1.5,0.7
			C66.9,164.9,67.7,165.5,67.4,166.8L67.4,166.8z"/>
		<path d="M604.9,192c-0.3-0.9-0.6-1.8-0.9-2.7c0.4-0.3,0.7-0.6,1-0.8c0.2-0.1,0.4-0.2,0.7-0.3c1.4,1,1.9,2.3,1.6,3.8L604.9,192
			L604.9,192z"/>
		<path d="M689.8,63.3h3.6v2.6C690.7,66.2,689.9,65.7,689.8,63.3z"/>
		<path d="M78,186.9c-0.6-1-0.7-1.9,0.5-2.9c1.2,1.1,2.9,1.8,3,3.9C80.1,188.4,78.9,188.1,78,186.9z"/>
		<path d="M677.5,98.9c0.8-0.7,1.4-1.3,2-1.9c1.2,0.8,1.8,1.7,2,2.7c-0.8,0.3-1.6,0.7-2.7,1.1C678.4,100.2,678,99.6,677.5,98.9z"/>
		<path d="M202.8,283.1c-2.4-1.5-2.6-2-1.3-4.3c1,0.9,2,1.8,3.1,2.8C203.8,282.3,203.3,282.7,202.8,283.1L202.8,283.1z"/>
		<path d="M291.8,320.5c1.5,0.8,3.6,0.8,3.8,3.4C292.3,324.2,291.5,323.5,291.8,320.5z"/>
		<path d="M45.4,167c-0.3-0.1-0.6-0.8-0.6-1.3c0-0.2,0.7-0.6,1.1-0.6c1.9-0.1,2.5,1.4,3.5,2.6C47.7,168.8,46.6,167.4,45.4,167z"/>
		<path d="M640.9,144.7c0.8-1.4,1.9-1.8,3.5-1.4c0,0.9,0.1,1.6,0.1,2.6C642.9,146.3,641.8,146.1,640.9,144.7z"/>
		<path d="M158.4,261.8c-0.6,0.4-1,0.8-1.6,1.2c-0.7-1.3-1.3-2.4-1.9-3.6c0.5-0.4,0.8-0.7,1.5-1.2
			C157.1,259.5,157.7,260.6,158.4,261.8z"/>
		<path d="M248.2,304c-2.4-0.4-2.9-1.2-2.2-3.8C248.5,301.1,248.8,301.5,248.2,304z"/>
		<path d="M324.1,340.2c2.4-0.1,2.9,0.3,3.4,2.6C324.6,343.2,323.5,342.3,324.1,340.2z"/>
		<path d="M0.3,153.9c0.4-0.8,0.5-1.5,0.9-1.7c1.3-0.6,2.8,0,4.2,1.7H0.3z"/>
		<path d="M185.9,287c-2.5-0.4-3.2-1.1-3.3-2.6c0-1.1,0.5-1.5,1.6-1.2C184.7,284.4,185.2,285.5,185.9,287L185.9,287z"/>
		<path d="M132,232.2c0.5,1.2,1.6,2.2,1.5,3.7c-2.4-0.2-2.8-0.8-2.8-3.7C131.3,232.2,131.9,232.1,132,232.2z"/>
		<path d="M231.3,305.3c-0.6-0.3-1.3-0.5-1.6-0.9c-0.4-0.5-0.7-1.3-0.9-2c-0.1-0.3,0-0.9,0.2-1c0.2-0.2,0.8-0.2,1.1,0
			C231.4,302.1,231.9,303.3,231.3,305.3L231.3,305.3z"/>
		<path d="M546.9,246.6c-1.3,0.5-2.2,0.8-3,1.2c-0.3-0.9-0.5-1.7-0.8-2.4c0.8-0.3,1.5-0.6,2.4-0.9
			C545.9,245.1,546.3,245.8,546.9,246.6L546.9,246.6z"/>
		<path d="M569.2,233.5c0.8,0.6,1.8,1.1,1.2,2.1c-0.5,0.9-1.2,1.8-2.6,1.2C567.4,235.4,567.7,234.2,569.2,233.5z"/>
		<path d="M347.8,332.5c0.7-0.6,1.3-1,2-1.5c0.9,0.9,2.1,1.4,1.7,2.9C350,334.3,348.8,334.1,347.8,332.5L347.8,332.5z"/>
		<path d="M23.9,169.3h3.7c0,0.9-0.1,1.7-0.1,2.7C26.1,171.1,24.5,171,23.9,169.3L23.9,169.3z"/>
		<path d="M668.6,134.9h-3c0.1-1.1,0.3-1.9,0.4-2.9C667.6,132.4,668.5,133.1,668.6,134.9L668.6,134.9z"/>
		<path d="M714.6,52.3c1-0.1,1.9-0.1,2.9-0.2v3C715.6,54.9,714.8,54.1,714.6,52.3z"/>
		<path d="M629.9,180.9c-0.5-0.6-1-1.2-1.5-1.9c1.1-0.6,2-1,3.1-1.6C631.7,179,631.6,180.2,629.9,180.9z"/>
		<path d="M726.9,18.5c0.9-0.4,1.6-0.7,2.6-1.1c0.4,0.8,0.8,1.6,1.2,2.5C729,20.2,727.8,20.1,726.9,18.5L726.9,18.5z"/>
		<path d="M62.4,188.2v2.7c-2.4,0.3-1.5-1.8-2.9-2.7H62.4z"/>
		<path d="M139.6,263c-0.1-0.6-0.4-1.1-0.6-1.8h2.4v2.7C140.4,264.2,139.8,264,139.6,263z"/>
		<path d="M411.4,336c-1.4,0.3-2.1-0.6-2.6-1.5c-0.1-0.2,0-0.8,0.2-1.1c0.1-0.2,0.7-0.3,0.9-0.2C410.8,333.8,411.8,334.4,411.4,336
			L411.4,336z"/>
		<path d="M258.4,328.9c-1.5,0.4-2.1-0.6-2.6-1.5c-0.1-0.2,0.1-0.8,0.3-1c0.1-0.2,0.7-0.2,0.9-0.1
			C257.8,326.9,258.8,327.4,258.4,328.9L258.4,328.9z"/>
		<path d="M359.9,356.3c0.8-0.5,1.5-0.9,2.5-1.5v3.2C361.1,358.1,360.4,357.6,359.9,356.3z"/>
		<path d="M117.3,236.9c-1.6-0.1-1.7-0.2-2.4-3.2C117.2,235,117.4,235.1,117.3,236.9z"/>
		<path d="M91.4,212c-1.4,0.2-2.1-0.6-2.6-1.5c-0.1-0.2,0-0.8,0.3-1.1c0.1-0.2,0.7-0.2,0.9-0.1C90.8,209.8,91.8,210.4,91.4,212
			L91.4,212z"/>
		<path d="M214.5,306.7c-1.3,0.2-2.6-0.4-2.8-1.4c0-0.3,0.1-0.7,0.3-0.9c0.2-0.2,0.7-0.3,0.9-0.2
			C213.8,304.8,214.8,305.4,214.5,306.7L214.5,306.7z"/>
		<path d="M506.3,291c1.5,0.1,2.3,0.1,3.3,0.2c-0.7,1.1-1.1,2.1-2.4,1.7C506.9,292.8,506.7,292,506.3,291L506.3,291z"/>
		<path d="M384.3,345c1.5,0.1,2.3,0.1,3.1,0.2c-1.1,1.7-1.6,2.1-2.2,1.7C384.8,346.7,384.7,346,384.3,345L384.3,345z"/>
		<path d="M619.6,213.2c-0.7,1.1-1.2,2.2-2.5,1.6c-0.3-0.1-0.3-1-0.4-1.6H619.6L619.6,213.2z"/>
		<path d="M594.2,223.5c1.1,1.1-0.3,1.7-1.1,2.5c-0.4-0.4-0.8-0.7-1.4-1.3C592.6,224,593.2,222.5,594.2,223.5z"/>
		<path d="M482.9,304.1c-0.4-0.4-0.7-0.8-1.1-1.3c0.3-0.4,0.5-0.8,0.7-0.9c0.5-0.2,1.3-0.7,1.6-0.5c0.8,0.6,0.3,1.3-0.2,1.8
			C483.7,303.4,483.4,303.6,482.9,304.1L482.9,304.1z"/>
		<path d="M164.7,288.1c1.1,0.9,2.2,1.3,1.7,2.9c-0.6-0.1-1.1-0.1-1.7-0.2V288.1L164.7,288.1z"/>
		<path d="M70,214.4l0.4-0.4c0.7,0.5,1.4,1,2.3,1.6c-0.7,0.6-1.1,0.9-1.6,1.3C70.6,215.9,70.3,215.1,70,214.4L70,214.4z"/>
		<path d="M690.2,123.9c0.8-1.1,1.3-1.9,1.8-2.7c0.1,0.1,0.3,0.1,0.4,0.2v2.4L690.2,123.9L690.2,123.9z"/>
		<path d="M557.5,271c-1.5,0-2.2-0.5-2.5-2c0.9,0,1.7,0.1,2.5,0.1V271L557.5,271z"/>
		<path d="M303.1,346.2h2.4c0,0.7-0.1,1.2-0.1,2.2c-1-0.7-1.8-1.1-2.5-1.6C303,346.6,303,346.4,303.1,346.2z"/>
		<path d="M703.3,87.2c1.1-0.2,1.6,0.7,2.2,1.7h-3.2C702.7,88.1,702.9,87.3,703.3,87.2z"/>
		<path d="M655.4,170.3c-0.9-1-1.4-1.6-2.2-2.5c0.9-0.3,1.4-0.6,2.2-0.9V170.3L655.4,170.3z"/>
		<path d="M273.3,324.9c0.8-0.4,1.4-0.6,2.1-1v3.3C274.6,326.3,274,325.7,273.3,324.9L273.3,324.9z"/>
		<path d="M435.5,323.1c0,0.8-0.1,1.4-0.1,1.9c-1.4,0.2-2-0.5-2.5-1.8C433.8,323.2,434.5,323.1,435.5,323.1L435.5,323.1z"/>
		<path d="M533.5,282c-1.5,0-2.2-0.5-2.5-2c0.9,0,1.7,0.1,2.5,0.1V282L533.5,282z"/>
		<path d="M460.5,313.9h-3.2c0.4-0.8,0.6-1.6,1-1.7C459.4,312,459.9,312.9,460.5,313.9L460.5,313.9z"/>
		<path d="M739.7,43.9c-0.3-1.5,0.3-1.9,1.7-1.7c0,0.6,0.1,1.1,0.1,1.8C740.8,44,740.3,43.9,739.7,43.9z"/>
		<path d="M14.5,206c-0.7-0.1-1.3-0.1-1.8-0.1c-0.3-1.5,0.3-1.9,1.7-1.7C14.5,204.8,14.5,205.3,14.5,206L14.5,206z"/>
		<path d="M640.7,203.2c0-0.4,0.6-1,1-1c1.2-0.1,0.8,0.9,0.8,1.8C641.6,204,640.7,204.4,640.7,203.2z"/>
		<path d="M195.4,311c-0.9,0.1-1.8,0.4-1.8-0.8c0-0.4,0.7-1,1-1C195.9,309.2,195.5,310.1,195.4,311L195.4,311z"/>
		<path d="M97.7,239.2c0-0.4,0.6-1,1-1c1.2-0.1,0.8,0.9,0.8,1.8C98.6,240,97.7,240.4,97.7,239.2z"/>
		<path d="M447.4,347.2c0,0.5,0.1,1.1,0.1,1.8c-0.7,0-1.2-0.1-1.8-0.1C445.5,347.5,445.9,346.9,447.4,347.2z"/>
		<path d="M606.5,249c-0.7-0.1-1.3-0.1-1.8-0.1c-0.3-1.5,0.3-1.9,1.7-1.7C606.5,247.8,606.5,248.3,606.5,249L606.5,249z"/>
		<path d="M121.6,266.1c0.1-1.2,0.9-1,1.8-0.9v1.8C122.5,267,121.5,267.4,121.6,266.1z"/>
		<path d="M714.7,112.1c0.1-1.2,0.9-1,1.8-0.8v1.8C715.5,113,714.5,113.3,714.7,112.1z"/>
		<path d="M39.7,193.1c0.9,0.8,1.3,1.2,1.8,1.7c-0.7,0.4-1.2,0.8-1.8,1.2V193.1L39.7,193.1z"/>
		<path d="M76.1,247.9c-0.2-0.1-0.4-0.3-0.6-0.4c0.5-0.7,1.1-1.4,1.9-2.6C77.7,246.8,76.8,247.3,76.1,247.9L76.1,247.9z"/>
		<path d="M494.8,328v-2.8c0.7,0.6,1.2,1,1.8,1.4C495.9,327.1,495.5,327.5,494.8,328L494.8,328z"/>
		<path d="M679.1,156.2c0.5,0.7,0.9,1.2,1.4,1.8h-2.8C678.2,157.3,678.5,156.9,679.1,156.2L679.1,156.2z"/>
		<path d="M423.2,358.5c-0.3,0.6-0.6,1.2-1,1.8C421.9,358.9,422.3,358.3,423.2,358.5z"/>
		<path d="M103.6,272.3c-0.6,0.7-1,1.1-1.4,1.6C101.5,272.5,101.9,271.9,103.6,272.3z"/>
		<path d="M726.8,76.2c1.4-0.1,1.9,0.7,2.8,1.8C728,78.1,727.4,77.4,726.8,76.2z"/>
		<path d="M238.8,329.7c0.6-0.5,1-0.9,1.8-1.7c-0.1,1.3-0.1,2-0.2,3.1C239.7,330.5,239.3,330.2,238.8,329.7L238.8,329.7z"/>
		<path d="M146.3,292.9v3C145.5,295,145.3,294.1,146.3,292.9z"/>
		<path d="M469.7,337.6c0.5-0.5,0.8-0.9,1.6-1.7C471.4,337.3,470.9,337.9,469.7,337.6z"/>
		<path d="M580,259.7c0.3-0.5,0.6-1,0.9-1.6C581.3,259.4,581,259.9,580,259.7z"/>
		<path d="M223.6,332.9c-1.5,0.4-2.3,0.2-1.8-1.6C222.4,331.8,222.9,332.2,223.6,332.9z"/>
		<path d="M152.5,327.9c-1.5,0.3-2.1,0.1-1.7-1.8C151.5,326.8,152,327.3,152.5,327.9z"/>
		<path d="M396.4,369.8c0.7-0.6,1.2-1,1.9-1.7C398.8,370,398.2,370.3,396.4,369.8z"/>
		<path d="M174.3,319.4c-0.7-0.7-1.1-1.1-1.8-2C174.7,316.9,174.7,317.6,174.3,319.4z"/>
		<path d="M285.5,350.2c0,0.6,0,1.1-0.1,1.7c-0.2,0-0.3,0-0.5,0v-1.7L285.5,350.2z"/>
		<path d="M47.4,224.1v1.8C46.5,225.2,46.3,224.6,47.4,224.1z"/>
		<path d="M314.9,372.3c0.2,0,0.4,0,0.6,0l-0.1,1.7c-0.2,0-0.3,0-0.5,0L314.9,372.3L314.9,372.3z"/>
		<path d="M124.7,300.9c0.8,1.1,0.8,1.1,0.7,1.8c0,0.1-0.2,0.1-0.6,0.3C124.8,302.4,124.7,301.8,124.7,300.9L124.7,300.9z"/>
	</g>
</g>
</svg>
