<?xml version="1.0" encoding="UTF-8"?>
<svg id="Ebene_2" data-name="Ebene 2" xmlns="http://www.w3.org/2000/svg" viewBox="0 0 232.78 373.34">
  <defs>
    <style>
      .cls-1 {
        fill: #a755f7;
      }

      .cls-2 {
        fill: #a0a0a0;
      }
    </style>
  </defs>
  <g id="Ebene_1-2" data-name="Ebene 1">
    <g>
      <path class="cls-2" d="m116.85,155.58c33.99,0,67.97,0,101.96,0,10.56,0,13.89,3.41,13.89,14.09,0,31.33.2,62.65-.06,93.98-.28,33.25-12.46,61.36-37.76,83.28-13.6,11.78-29.3,19.5-47.04,23.2-19.01,3.97-38.31,4.13-57.13,1.17-33.68-5.3-59.55-23.41-76.72-53.19C4.15,300.99.11,282.41.24,262.7c.21-31.16.05-62.32.06-93.48,0-10.77,2.86-13.63,13.57-13.64,34.32,0,68.65,0,102.97,0Z"/>
      <path class="cls-1" d="m54.49,145.18c-15.48,0-30.97.04-46.45-.02-6.38-.02-7.7-1.3-7.73-7.59-.06-16.98-.75-34,.12-50.94C2.28,50.84,19.67,24.86,51.8,8.76,67.77.76,84.84-.39,102.23.17c4.23.14,6.33,2.46,6.42,6.63.05,2.33-.09,4.67.09,6.99.52,6.78.33,12.57-7.22,16.45-5.82,2.99-8.24,9.59-8.3,16.18-.2,23.31-.29,46.62,0,69.93.1,8.54,4.57,14.96,11.96,19.49,1.55.95,3.4,3.94,2.93,5.1-.74,1.8-3.29,3.93-5.17,4.02-9.14.43-18.31.23-27.46.24-6.99,0-13.99,0-20.98,0Z"/>
      <path class="cls-2" d="m177.5,145.21c-14.83,0-29.66,0-44.49-.01-1.66,0-3.63.37-4.91-.37-1.66-.96-3.47-2.71-3.88-4.43-.28-1.2,1.33-3.56,2.7-4.32,8.31-4.63,12.65-11.79,12.76-21.02.28-22.33.25-44.66,0-66.99-.1-9.28-4.51-16.37-12.7-21.12-1.42-.82-2.9-2.84-3.01-4.4-.39-5.14-.28-10.32-.14-15.48.12-4.3,2.4-6.75,6.85-6.92,18.12-.71,35.79,1.02,52.25,9.52,21.18,10.94,36.01,27.45,44.15,49.91,4.37,12.05,5.84,24.5,5.65,37.27-.2,13.33-.03,26.66-.06,39.99-.01,6.57-1.7,8.34-8.2,8.36-15.66.05-31.33.02-46.99.02Z"/>
      <path class="cls-2" d="m133.77,81.41c0,10.82.02,21.63,0,32.45-.03,10.85-7.53,18.88-17.54,18.82-10.1-.06-17.04-7.48-17.08-18.62-.08-21.8-.08-43.6,0-65.39.04-8.73,4.25-14.92,11.47-17.48,6.24-2.22,14.56-.29,18.75,5.51,2.36,3.28,4,7.75,4.21,11.78.56,10.95.19,21.95.19,32.94Z"/>
    </g>
  </g>
</svg>